<svg xmlns="http://www.w3.org/2000/svg" viewBox="0 0 987.17 837.19"><defs><style>.cls-1{isolation:isolate;}.cls-2{fill:#1675ad;}.cls-12,.cls-14,.cls-3,.cls-9{fill:#fff;}.cls-3{opacity:0.4;}.cls-11,.cls-12,.cls-14,.cls-3{mix-blend-mode:soft-light;}.cls-4{fill:#125f8c;}.cls-5{fill:#5cafe6;}.cls-6{fill:#3d93cc;}.cls-7{fill:#fb7164;}.cls-8{fill:#cc5c51;}.cls-10{fill:#daecf2;}.cls-11,.cls-12{opacity:0.5;}.cls-13{fill:#102d4d;}</style></defs><title>Glasses</title><g class="cls-1"><g id="Layer_2" data-name="Layer 2"><g id="OBJECTS"><path class="cls-2" d="M28.74,755.24c.69-.56,1.42-1.09,2.18-1.6,12-8,24.62-35.11,39.73-30,12.38,5.47,7.6,19,11.1,28.51,10,28.81,43.77,4.55,50.88-12.16,8.28-14,11.49-30.5,14.69-46.35,3-15.09,3.84-34.3,16.21-45.73,7.09-7.42,22.48-6.86,23.89,5,2.56,36.06,38.19,16.63,43.69-6.13a13,13,0,0,1,.54-1.78c11.57-32,12.69-67.4,5.31-101.22-1.12-5.27-2.48-10.5-4-15.69-2.8-8.35-8.34-14.37-15.32-18.94a82.87,82.87,0,0,0-18-8.59c-32.58-13-72.27-18.75-101.18,1.38-7.62,5.32-17.16,12.92-19.76,21.72-4.67,15.68,18.2,13,27.7,16.95,11,4.57,9.8,16,4.06,23.27-8.54,11-25.81,11.74-39.41,13.35-19.59,2.34-40.16,7.45-54.08,20.44-6.07,5.68-8.81,14.18-6.08,22.1a21.31,21.31,0,0,0,7.38,9.9c5.23,4,13.16,3.6,17.53,8.74,3,3.51,3,8.4,1.61,12.51C33.87,661.35,26,669.56,20.05,678.74,8.17,697.14-1.93,717.55.31,739.9-.76,756.63,14.58,767.32,28.74,755.24Z"/><path class="cls-3" d="M62.13,689.46l19.39-21.64c3.39-3.8,8.74-7.92,13-5.05,3,2,3.21,6.43,2.28,9.93s-2.58,7-2.1,10.61c.84,6.4,8.54,10.12,14.81,8.72s11.15-6.43,14.78-11.74c19.91-29.08,14.19-70.52,35.19-98.83,4.21-5.7,11.23-11.12,17.87-8.54,5.46,2.12,7.72,8.85,7.58,14.71s-1.92,11.72-1.56,17.6,4,12.28,9.83,12.94c7.11.79,12-6.75,15-13.2q14.41-30.56,28.78-61.12c-1.12-5.27-2.48-10.5-4-15.69-2.8-8.35-8.34-14.37-15.32-18.94a66.35,66.35,0,0,1-35.15,4.11c-8.67-1.39-17.14-4.54-25.91-4.35s-18.41,5-20.23,13.59c-1.51,7.16,2.81,14.21,3.64,21.5,1.09,9.7-4.31,19.25-11.74,25.59s-16.73,10-25.87,13.41S83.83,589.81,76,595.6c-6.79,5-12.56,12.73-12,21.16.34,5.19,3,9.94,3.84,15.06,1.37,8.52-2.48,17.1-7.62,24s-11.53,12.91-16.45,20c-2.32,3.35-4.31,7.1-4.61,11.15s1.52,8.49,5.16,10.28C50.55,700.41,57.46,694.68,62.13,689.46Z"/><path class="cls-3" d="M9.07,735.61c-4.09-7,.06-15.08,2.76-22,1.29-3.31,5.43-11.56,10.35-9.36,4.67,2.09,3.2,10.23,2.59,14-1.15,7.2-.63,14.38-6.64,19.3C15.48,739.74,10.7,738.42,9.07,735.61Z"/><path class="cls-3" d="M96.36,737.69a49.07,49.07,0,0,0,16.35-14c4.32-5.79,6.48-12.44,10.26-18.46s12-4.05,13,2.78c2.77,18.82-14.07,37.25-29.15,45.82C96,759.91,85.54,743.62,96.36,737.69Z"/><path class="cls-3" d="M38.6,632a29.37,29.37,0,0,1-9.77-9.56c-2.62-4.12-3.24-8.18-1.32-12.71,1.14-2.68,5.22-3.27,7.21-1.27s3.49,3.85,5.18,5.82c2,2.32,4.73,3.88,6.85,6.08a7.22,7.22,0,0,1,1,9.36C45.76,632.46,41.73,633.85,38.6,632Z"/><path class="cls-3" d="M92.61,525.22c1.28-5.5,4.24-9.54,8.51-13.16,4.43-3.75,10.93-7.77,16.74-4.73,3.17,1.66,4.88,6.13,2.94,9.35-2.48,4.14-6.68,4.69-10.51,6.94a43.51,43.51,0,0,0-8,6.6C98.45,534,91.28,531,92.61,525.22Z"/><path class="cls-3" d="M200.52,641c.49-6,6.8-10.1,10.31-14.57a44.39,44.39,0,0,1,5-5.39,9.46,9.46,0,0,1,3.34-2.36c.74-.25,1.85-.06,2.52-.39a2.18,2.18,0,0,1,3,.64c1.48,2.65,3,3.72,3,7.09a23.84,23.84,0,0,1-2.46,10.45c-3,6.5-8,14.55-15.89,14.77C203.23,651.42,200.07,646.51,200.52,641Z"/><path class="cls-4" d="M38.52,709.64a2.17,2.17,0,0,1-.89-2.93c7.11-13.31,14.88-26.22,23.2-38.73a81.71,81.71,0,0,0-20.34,8.5,2.17,2.17,0,1,1-2.2-3.73A86.54,86.54,0,0,1,64.4,662.67a474.19,474.19,0,0,1,39-49.52,198.6,198.6,0,0,0-64.32,0,2.16,2.16,0,0,1-.7-4.27,202.9,202.9,0,0,1,68.48.48,476.29,476.29,0,0,1,87.87-74.73,249.5,249.5,0,0,0-85.32-9.09,2.17,2.17,0,0,1-.29-4.33,254,254,0,0,1,90.38,10.31,470.82,470.82,0,0,1,68.24-36.37,2.17,2.17,0,0,1,2.85,1.12,2.17,2.17,0,0,1-1.13,2.85,465.07,465.07,0,0,0-56.59,29.17,354.45,354.45,0,0,1-1.09,106.12.52.52,0,0,1,0,.11,2.16,2.16,0,0,1-4.25-.81,350.09,350.09,0,0,0,1.32-103q-3.69,2.28-7.34,4.64a2.25,2.25,0,0,1-.81.52,472.07,472.07,0,0,0-78,63.25,272.74,272.74,0,0,1-5.43,76.3,269.49,269.49,0,0,1-12.31,41.12,2.16,2.16,0,1,1-4-1.58,268.49,268.49,0,0,0,17.68-111.67q-4.44,4.58-8.79,9.27a2.1,2.1,0,0,1-.88,1q-15.18,16.61-28.75,34.62A257.1,257.1,0,0,1,75,685.88q-.92,4.27-2,8.49a2.17,2.17,0,0,1-2.63,1.57,2.2,2.2,0,0,1-1.57-2.62,251,251,0,0,0,6.52-38.6c-2.6,3.59-5.16,7.19-7.66,10.85a2.63,2.63,0,0,1-.3.44,462.65,462.65,0,0,0-25.91,42.74A2.17,2.17,0,0,1,38.52,709.64Z"/><path class="cls-5" d="M663.49,188C638.74,258,551.33,269.2,493.2,318a147.56,147.56,0,0,0-31.8,36.37c-1.77,2.88-6.45,1.88-7.09-1.49-2.53-12.68-3.25-27-2.35-42.18C457.8,210.44,534.08,72,633.49,110.42,662.85,121.76,673.28,160.3,663.49,188Z"/><path class="cls-3" d="M616,176.4c-8.39,8-19.94,11.66-30.77,16s-22,10.1-27.36,20.41c-5.54,10.6-3.89,24-10.3,34.08-10.68,16.83-37.85,16.07-49,32.65-6.82,10.16-5.29,23.51-5.31,35.78,0,.9,0,1.77-.05,2.68a147.56,147.56,0,0,0-31.8,36.37c-1.77,2.88-6.45,1.88-7.09-1.49-2.53-12.68-3.25-27-2.35-42.18a124.1,124.1,0,0,1,8.12-15.46c9.76-16.13,21.83-31.26,27.17-49.33,3.3-11.21,4.21-23.84,12.1-32.41,5.84-6.3,14.51-9.26,20.68-15.23s9.08-14.23,13.21-21.65C545.91,153.73,570.89,138.23,597,137c8.77-.41,18.5,1.2,24,8C628.29,154.08,624.35,168.35,616,176.4Z"/><path class="cls-3" d="M602.3,214.88c-9.18,11.11-19.95,18.2-31.45,26.52-7.63,5.52-3.18,17.7,6.57,15.52,15.76-3.53,29.93-15,40.21-27C626.57,219.43,611.09,204.24,602.3,214.88Z"/><path class="cls-3" d="M545.73,136.19c-3.52-3.16-8-2.85-11.51.11a11.74,11.74,0,0,0-4.47,8.34c-.18,4.15,3.42,6.76,7.12,7.17,3.4.37,6.54-2.05,9-4.11C549.08,144.93,548.79,139,545.73,136.19Z"/><path class="cls-3" d="M603.4,110.45c-13.82-1.16-37.87.57-41.9,17.12a2.79,2.79,0,0,0,1.92,3.33c6.11,2,11.56,1,17.77-.24a78.38,78.38,0,0,1,22.15-1.22c3,.25,7.06-2,8.27-4.78a11.61,11.61,0,0,0,.92-7.21C611.9,113.14,607.22,110.77,603.4,110.45Z"/><path class="cls-3" d="M483,235.45a5,5,0,0,0-2.19-2.83,5.46,5.46,0,0,0-3.54-.45,8,8,0,0,0-1,.17,5.84,5.84,0,0,0-4,7.06,6.37,6.37,0,0,0,.74,1.91,5.63,5.63,0,0,0,1.32,1.43,5.39,5.39,0,0,0,2.92,1,5.73,5.73,0,0,0,2.08-.32,5.83,5.83,0,0,0,4-7.06A9.38,9.38,0,0,0,483,235.45Z"/><path class="cls-6" d="M642.54,167h0a113.82,113.82,0,0,1-56,1.15c3.46-2.38,7-4.7,10.47-6.9a2.89,2.89,0,1,0-3.06-4.91,280.45,280.45,0,0,0-23.59,16.5A211.41,211.41,0,0,1,590.88,128a2.89,2.89,0,0,0-4.94-3,217,217,0,0,0-23.62,54.32A326,326,0,0,0,525.86,215a179.59,179.59,0,0,1,3.54-31.78,2.89,2.89,0,1,0-5.67-1.16A186.26,186.26,0,0,0,520,221.8a341.8,341.8,0,0,0-38.8,57.73,129.81,129.81,0,0,1-6.12-22.06,2.89,2.89,0,0,0-3.37-2.32,2.86,2.86,0,0,0-2.33,3.36,137.12,137.12,0,0,0,8.3,27.85q-2.94,5.83-5.6,11.77a2.78,2.78,0,0,0-.37.8,281.39,281.39,0,0,0-17,49.55,94.44,94.44,0,0,0-2.14,20.28,2.89,2.89,0,0,0,2.91,2.88,2.66,2.66,0,0,0,.75-.1,2.88,2.88,0,0,0,2.13-2.8,88.25,88.25,0,0,1,2-18.92,274.78,274.78,0,0,1,16.21-47.59l1.89-.48a134.94,134.94,0,0,0,31.68-13.18,2.89,2.89,0,0,0-2.88-5,129,129,0,0,1-27.51,11.74A328.41,328.41,0,0,1,510,244.19a170.92,170.92,0,0,0,45.65-6,167.63,167.63,0,0,0,29.3-11,2.89,2.89,0,1,0-2.53-5.2,164.49,164.49,0,0,1-68.1,16.3q5-6.58,10.22-12.93a2.89,2.89,0,0,0,.9-1.06,322.41,322.41,0,0,1,40.79-40.75,2.82,2.82,0,0,0,.79-.67q6.54-5.39,13.31-10.33a119.4,119.4,0,0,0,62.75.3l1-.28a2.9,2.9,0,0,0-1.55-5.58Z"/><path class="cls-7" d="M614.32,571.78l-.35,0c0,.15,0,.32,0,.47a219.6,219.6,0,0,0,.2,38.41c0,.64.08,1.28.15,1.92,10.13,101.73,90.78,179.15,197.81,183.55C826.67,695.91,769.33,586.93,663.43,572c-2.68-.37-5.42-.7-8.16-.93A189.54,189.54,0,0,0,614.32,571.78Z"/><path class="cls-3" d="M614.32,571.78l-.35,0c0,.15,0,.32,0,.47a219.6,219.6,0,0,0,.2,38.41C657.48,632,730.83,677.2,789.4,758.84c-7.48-78.56-66.8-144.53-134.13-187.75A189.54,189.54,0,0,0,614.32,571.78Z"/><path class="cls-3" d="M694.08,713.56c9.09,4.22,16.42,14,24.31,20.24s17.6,11.41,24.59,19c6.38,6.89-.66,16.65-9.14,14.74-11.46-2.58-21.39-10.91-30.24-18.26-8.61-7.16-18.78-15.46-22.41-26.33C678.54,714.94,688.05,710.76,694.08,713.56Z"/><path class="cls-3" d="M673.31,686.65c2.52,4.39,5.39,8.57,6.4,13.59a9.91,9.91,0,0,1-3.79,10.18c-2.95,2.15-7.75,2.78-10.87.46a31.3,31.3,0,0,1-4.07-3.19,39.73,39.73,0,0,1-3.16-4.43l-4.1-5.89c-2.78-4-1.2-10.34,2.12-13.47a12.23,12.23,0,0,1,5-2.73C665.49,679.48,671,682.69,673.31,686.65Z"/><path class="cls-3" d="M797.28,700.58c1.55,4.62,4.16,11.86.79,16.1a4.75,4.75,0,0,1-5.05,1.89c-5.29-.88-8.19-8-10.13-12.39-1.86-4.26-.59-9.14,4-10.94S795.8,696.15,797.28,700.58Z"/><path class="cls-3" d="M732.71,609.62a5.36,5.36,0,0,1,1.59,1.47c1.13,1.37,2.23,2.88,2,4.79a5.85,5.85,0,0,1-1.7,3.8l-1.13.82a5.42,5.42,0,0,1-2.76.67c-1.9.15-3.38-1-4.67-2.23a6.44,6.44,0,0,1-2.11-4.8,5.51,5.51,0,0,1,1.75-3.89,5.43,5.43,0,0,1,4-1.53A8,8,0,0,1,732.71,609.62Z"/><path class="cls-3" d="M807.45,749.17c2.44,8.47,4,23.86-2.66,30.7-1.82,1.87-5.64,1.93-7.32-.21-3.12-4-3.18-8.3-3.71-13.2-.57-5.23-1.68-10.34-2-15.61C791.07,741.54,805.07,740.88,807.45,749.17Z"/><path class="cls-8" d="M773.5,773.8A173.58,173.58,0,0,1,775,734.08q6.6,13.47,12.06,27.54a2.89,2.89,0,0,0,5.4-2.08c-2.85-7.41-6-14.68-9.33-21.85a108,108,0,0,1,17.8.33,2.89,2.89,0,1,0,.58-5.76,114.62,114.62,0,0,0-21-.17,353.83,353.83,0,0,0-55.93-82.54,142.56,142.56,0,0,1,36.1-2,2.88,2.88,0,0,0,3.09-2.67,3,3,0,0,0-2.67-3.1,148.79,148.79,0,0,0-41.15,2.78q-5-5.33-10.27-10.44a3,3,0,0,0-1-.95,341.14,341.14,0,0,0-54-42.68A204.18,204.18,0,0,1,705.89,600a2.89,2.89,0,1,0,1.77-5.51,210.2,210.2,0,0,0-63.14-10.07q-3.76-2.22-7.6-4.32a2.24,2.24,0,0,0-.57-.31,313.28,313.28,0,0,0-46.43-20.82,2.9,2.9,0,0,0-3.69,1.77,3,3,0,0,0-.16.88A2.91,2.91,0,0,0,588,564.4a307.66,307.66,0,0,1,44.13,19.65c-.61,4.79-1,9.59-1.16,14.4a146.6,146.6,0,0,0,9.8,57,2.9,2.9,0,0,0,5.4-2.1,140.61,140.61,0,0,1-8.54-66.26,332.72,332.72,0,0,1,66.42,49.75,269.92,269.92,0,0,0-4.21,40.39A267,267,0,0,0,702.35,722a2.89,2.89,0,0,0,5.73-.81,262.77,262.77,0,0,1,1-79.47,347.93,347.93,0,0,1,61.5,83.72,178.36,178.36,0,0,0-2.87,48.77,2.89,2.89,0,0,0,5.77-.45Z"/><path class="cls-9" d="M521,478.79c-11.33,106.75-107,184-213.68,172.71A194.22,194.22,0,0,1,134.68,437.79c9.63-90.78,80.47-160.38,167.14-172l25.46-240,91.8,9.74L393.63,275.41C475.93,305,530.69,387.9,521,478.79Z"/><path class="cls-10" d="M500.06,480.22c-10.1,95.17-95.75,164.37-190.9,154.27q-8-.86-15.7-2.39a174.29,174.29,0,0,1-119.57-89.52A175.15,175.15,0,0,1,163,517.14a171.13,171.13,0,0,1-8.63-43,175.47,175.47,0,0,1,.55-30.53A173,173,0,0,1,304.18,289.92l16.15-2.16L347.51,31.58,398.11,37,370.94,293l5.19,1.86,10.11,3.63a172.92,172.92,0,0,1,29.86,14.05,167.09,167.09,0,0,1,22.65,16A172.81,172.81,0,0,1,501,464.33C501,469.61,500.63,474.89,500.06,480.22Z"/><path class="cls-7" d="M489.75,479.13c-9.49,89.43-90,154.58-179.5,145.08S155.7,534.12,165.19,444.69a154.51,154.51,0,0,1,3.53-20.59c28.09-29.82,74.83-41.44,113.29-26.72,30.86,11.8,54.46,37.65,84.33,51.56,39,18.19,87.26,12.29,122.46-11.91A164.64,164.64,0,0,1,489.75,479.13Z"/><path class="cls-11" d="M489.75,479.13c-9.49,89.43-90,154.58-179.5,145.08S155.7,534.12,165.19,444.69a154.51,154.51,0,0,1,3.53-20.59c75.78-20.76,117.91,95,209.41,99.88,72,3.81,106.15-63.6,110.67-87A164.64,164.64,0,0,1,489.75,479.13Z"/><path class="cls-11" d="M207.28,459.29c-5.49-.58-6.41,8-.91,8.54S212.78,459.88,207.28,459.29Z"/><path class="cls-11" d="M247.58,464.14a9.3,9.3,0,0,0-2-4.37l-1.73-1.66a9.35,9.35,0,0,0-4.58-1.78,7.17,7.17,0,0,0-3.68.42,9.69,9.69,0,0,0-6.65,7.93c0,.84.05,1.68.07,2.51a9.39,9.39,0,0,0,2,4.38l1.73,1.66a9.4,9.4,0,0,0,4.58,1.78,7.07,7.07,0,0,0,3.68-.43,9.62,9.62,0,0,0,6.64-7.92C247.63,465.82,247.61,465,247.58,464.14Z"/><path class="cls-11" d="M233.15,493.57a13.62,13.62,0,0,0-2.86-6.37l-2.52-2.42a13.65,13.65,0,0,0-6.67-2.59,15.26,15.26,0,0,0-10,3,15.28,15.28,0,0,0-5,9.2c0,1.22.07,2.44.1,3.66A13.71,13.71,0,0,0,209,504.4l2.53,2.42a13.56,13.56,0,0,0,6.67,2.58,15.18,15.18,0,0,0,10-3,10.24,10.24,0,0,0,3.28-4.08,10.37,10.37,0,0,0,1.73-5.12C233.22,496,233.19,494.8,233.15,493.57Z"/><path class="cls-11" d="M355.52,583.51l-.09-.2a13.15,13.15,0,0,0-22.59-2.4l-.13.18a13.28,13.28,0,1,0,22.81,2.42Z"/><path class="cls-11" d="M372.3,564.27c0-.1-.05-.21-.08-.32-.17-.53-.33-1.06-.49-1.6a4.85,4.85,0,0,0-1.46-2,3.27,3.27,0,0,0-1.32-1,4.92,4.92,0,0,0-2.42-.81l-1.72,0-1.6.48a7.19,7.19,0,0,0-3.36,3.52l-.15.3a6.54,6.54,0,0,0,1,6.53l1.21,1.16a6.59,6.59,0,0,0,3.21,1.25,7.35,7.35,0,0,0,4.82-1.43,6.57,6.57,0,0,0,2-2.7A6.67,6.67,0,0,0,372.3,564.27Z"/><path class="cls-11" d="M467.18,519.55a7.81,7.81,0,0,0-1.65-3.67l-1.45-1.39a7.81,7.81,0,0,0-3.84-1.49,8.1,8.1,0,0,0-8.67,7l.06,2.11a7.85,7.85,0,0,0,1.65,3.68l1.45,1.39a7.9,7.9,0,0,0,3.84,1.49,5.94,5.94,0,0,0,3.1-.36,8.07,8.07,0,0,0,5.57-6.65Z"/><path class="cls-11" d="M262.07,564.85a12.38,12.38,0,0,0-2.58-5.75l-2.28-2.19a12.3,12.3,0,0,0-6-2.33,11.92,11.92,0,0,0-12,6.35,9.31,9.31,0,0,0-1.56,4.62l.09,3.31a12.28,12.28,0,0,0,2.58,5.75l2.28,2.18a12.2,12.2,0,0,0,6,2.33,11.88,11.88,0,0,0,12-6.35,9.27,9.27,0,0,0,1.56-4.61Z"/><path class="cls-11" d="M316.87,530.8a1.77,1.77,0,0,0-.39-.87l-.35-.34a1.89,1.89,0,0,0-.91-.35,1.43,1.43,0,0,0-.74.08,1.73,1.73,0,0,0-1.09.89,1.43,1.43,0,0,0-.24.7c0,.17,0,.33,0,.5a1.8,1.8,0,0,0,.39.88l.35.33a1.76,1.76,0,0,0,.91.35,1.8,1.8,0,0,0,1.83-1,1.47,1.47,0,0,0,.24-.71C316.88,531.14,316.88,531,316.87,530.8Z"/><path class="cls-9" d="M425.1,39.82,320.55,28.72a14.4,14.4,0,0,1-12.79-15.84h0A14.39,14.39,0,0,1,323.59.08L428.14,11.17A14.4,14.4,0,0,1,440.94,27h0A14.41,14.41,0,0,1,425.1,39.82Z"/><polygon class="cls-12" points="396.6 51.16 385 160.53 329.03 205.77 340.63 96.4 396.6 51.16"/><path class="cls-12" d="M416.1,312.57,163,517.14a171.13,171.13,0,0,1-8.63-43L376.13,294.89l10.11,3.63A172.92,172.92,0,0,1,416.1,312.57Z"/><path class="cls-12" d="M465.73,356.71,195.85,574.85a173.28,173.28,0,0,1-22-32.27l264.86-214A172.73,172.73,0,0,1,465.73,356.71Z"/><path class="cls-12" d="M500.06,480.22c-10.1,95.17-95.75,164.37-190.9,154.27q-8-.86-15.7-2.39L501,464.33C501,469.61,500.63,474.89,500.06,480.22Z"/><path class="cls-9" d="M605.81,834.27l-279.7-108.9c-29.06-11.32-36.07-49.3-12.92-70.2L546.83,444.9l75.83-194.75,86,33.5L632.86,478.39l29.93,312.9A41.91,41.91,0,0,1,605.81,834.27Z"/><path class="cls-10" d="M633.85,812.14A20.92,20.92,0,0,1,613.34,815l-279.7-108.9a21.19,21.19,0,0,1-6.56-35.5l56.1-50.49,63.25-56.93,92.22-83L564.36,457,642,257.68l47.42,18.46L611.77,475.46l1.36,14.39,2.68,27.94,3.88,40.76,10.62,111,9.76,101.93,2.09,21.79A20.91,20.91,0,0,1,633.85,812.14Z"/><path class="cls-9" d="M714.66,286l-98-38.14a14.4,14.4,0,0,1-8.19-18.65h0A14.39,14.39,0,0,1,627.14,221l98,38.14a14.41,14.41,0,0,1,8.19,18.65h0A14.39,14.39,0,0,1,714.66,286Z"/><path class="cls-5" d="M627.57,804A10.56,10.56,0,0,1,617,805.26l-279.7-108.9a10.48,10.48,0,0,1-6.71-8.14c-5.94-8.5,55.58-54.27,58.94-60,62.21,67.6,218.71-18,234.66,85.84C622.85,720.49,637.85,801.87,627.57,804Z"/><path class="cls-11" d="M627.57,804A10.56,10.56,0,0,1,617,805.26l-279.7-108.9a10.48,10.48,0,0,1-6.71-8.14c-5.94-8.5,55.58-54.27,58.94-60,12.89,79.28,84,38.67,165.65,75.89,15.15,6.89,41.93,31.06,69,9.95C622.85,720.49,637.85,801.87,627.57,804Z"/><path class="cls-11" d="M584.53,764.22c-10-3.88-16,11.61-6,15.5S594.52,768.11,584.53,764.22Z"/><path class="cls-11" d="M564.5,756.38a.17.17,0,0,0-.13.32A.17.17,0,0,0,564.5,756.38Z"/><path class="cls-11" d="M570.06,757.23a3.46,3.46,0,0,0-2.12-3.46c-.32-.13-.67-.22-1-.32a3.39,3.39,0,0,0-1.81-.19l-.86.25a3.5,3.5,0,0,0-1.39,1.11,2.65,2.65,0,0,0-.56,1.27,3.3,3.3,0,0,0,.39,2.6,3.36,3.36,0,0,0,2.61,1.68c.65,0,1.28,0,1.93,0l.82-.24a2.56,2.56,0,0,0,1-.76A3.22,3.22,0,0,0,570.06,757.23Z"/><path class="cls-11" d="M613.8,754.2a8.23,8.23,0,0,0-.65-4.13l-1.08-1.79a8,8,0,0,0-3.44-2.54,7.88,7.88,0,0,0-8.79,2,6.25,6.25,0,0,0-1.8,2.68l-.51,2.14a8.1,8.1,0,0,0,.65,4.12l1.08,1.79A8,8,0,0,0,602.7,761a9.06,9.06,0,0,0,6.25-.13,6.08,6.08,0,0,0,2.53-1.84,6,6,0,0,0,1.8-2.68C613.46,755.62,613.63,754.91,613.8,754.2Z"/><path class="cls-11" d="M608.17,782.82a.17.17,0,0,0-.12.32A.17.17,0,0,0,608.17,782.82Z"/><path class="cls-11" d="M377,690.62a7,7,0,0,0-.56-3.59l-.94-1.55a7.13,7.13,0,0,0-3-2.21,5.31,5.31,0,0,0-2.77-.42,6.39,6.39,0,0,0-4.87,2.14,5.29,5.29,0,0,0-1.56,2.33l-.45,1.85a7,7,0,0,0,.56,3.59l.94,1.55a7,7,0,0,0,3,2.21,5.33,5.33,0,0,0,2.78.42,5.16,5.16,0,0,0,2.66-.54,5.32,5.32,0,0,0,2.2-1.59,5.37,5.37,0,0,0,1.56-2.34Z"/><path class="cls-11" d="M381.55,672.1a7.64,7.64,0,0,0-.61-3.86l-1-1.67a7.68,7.68,0,0,0-3.22-2.38,7.85,7.85,0,0,0-9.9,4.36l-.48,2a7.64,7.64,0,0,0,.61,3.86l1,1.67a7.64,7.64,0,0,0,3.22,2.37,5.82,5.82,0,0,0,3,.46,5.71,5.71,0,0,0,2.86-.58,5.77,5.77,0,0,0,2.37-1.72,5.87,5.87,0,0,0,1.68-2.51Z"/><path class="cls-11" d="M414,703.07a5.41,5.41,0,0,0-2.12-4.84,4.73,4.73,0,0,0-.71-.45,5.77,5.77,0,0,0-6.89,9.25,5.77,5.77,0,0,0,5.77.65,4.23,4.23,0,0,0,.78-.27,5.36,5.36,0,0,0,2.14-1.69A5.49,5.49,0,0,0,414,703.07Z"/><path class="cls-11" d="M468.74,708.66c.87,2.93,0-.19,0,0Z"/><path class="cls-11" d="M468.76,711.11a1.64,1.64,0,0,0,0-.19h0v0h0a6.46,6.46,0,0,0-.05-2.15.34.34,0,0,0,0-.1h0c-.09-.31-.18-.63-.32-1.09s-.21-.72-.31-1.08h0s-1.17-1.94-1.17-2h0l-1.67-1.62a6.78,6.78,0,0,0-3.28-1.44,4.31,4.31,0,0,0-2.33-.25,4.48,4.48,0,0,0-2.26.35,4.59,4.59,0,0,0-2.09.92,8.92,8.92,0,0,0-3.18,3.31,9,9,0,0,0-1.12,4.56,6.66,6.66,0,0,0,.68,3.36l1.18,2,1.67,1.62,2.11,1.17L459,719l2.32-.06,2.21-.65,2-1.19,1.62-1.66,1.17-2.11A7.07,7.07,0,0,0,468.76,711.11Z"/><path class="cls-11" d="M539.45,749.77a12.17,12.17,0,0,0-1-6.16c-.53-.89-1.07-1.78-1.61-2.67a12,12,0,0,0-5.13-3.78A12.52,12.52,0,0,0,516,744.1c-.26,1.06-.52,2.12-.77,3.18a12.15,12.15,0,0,0,1,6.15l1.6,2.67a12.17,12.17,0,0,0,5.13,3.78,9.23,9.23,0,0,0,4.76.73,12.54,12.54,0,0,0,11-7.66C538.94,751.89,539.19,750.83,539.45,749.77Z"/><path class="cls-11" d="M519,721.3a9.07,9.07,0,0,0-.72-4.6l-.16-.35a10.17,10.17,0,0,0-5-4.83,10.19,10.19,0,0,0-7,.15l-2,1.2a9.17,9.17,0,0,0-2.84,3.84l-.57,2.38a9.07,9.07,0,0,0,.72,4.6c.05.12.11.23.16.35a10.17,10.17,0,0,0,5,4.83,10.19,10.19,0,0,0,7-.15l2-1.2a9.17,9.17,0,0,0,2.84-3.84Z"/><polygon class="cls-12" points="689.38 276.14 675.44 311.95 609.56 340.91 641.96 257.68 689.38 276.14"/><polygon class="cls-12" points="613.13 489.85 446.43 563.13 538.65 480.16 624.68 442.31 611.77 475.46 613.13 489.85"/><path class="cls-12" d="M619.69,558.55,320.43,690.11a21,21,0,0,1,6.65-19.56l56.1-50.49L615.81,517.79Z"/><polygon class="cls-12" points="640.07 771.48 575.11 800.07 446.93 750.16 630.31 669.55 640.07 771.48"/><path class="cls-9" d="M262.45,484.63h0a46.17,46.17,0,0,1-56.61-32.53L111.32,102.51l89.14-24.1L295,428A46.17,46.17,0,0,1,262.45,484.63Z"/><path class="cls-10" d="M180.45,83.82,275,433.42a25.44,25.44,0,0,1-49.12,13.28L131.33,97.1Z"/><path class="cls-2" d="M212.27,241.28C236.58,331.17,265,436.12,265,436.12a15.07,15.07,0,1,1-29.1,7.87l-55-203.37C188.05,234.06,197.37,243.55,212.27,241.28Z"/><path class="cls-11" d="M236.58,331.17l28.37,105a15.07,15.07,0,1,1-29.1,7.87L207.44,338.91a56.75,56.75,0,0,0,15-2.15A60.37,60.37,0,0,0,236.58,331.17Z"/><path class="cls-11" d="M254.22,425.34a4,4,0,0,0-1.42-1.4l-.92-.38a3.88,3.88,0,0,0-2,0,4.39,4.39,0,0,0-2.36,1.82,3,3,0,0,0-.45,1.42,3,3,0,0,0,.07,1.53l.4,1a3.89,3.89,0,0,0,1.42,1.4l.92.38a3.88,3.88,0,0,0,2,0,4,4,0,0,0,2.74-4.77Z"/><path class="cls-11" d="M242.72,415.33a4.76,4.76,0,0,0-1.74-1.71l-1.13-.47a4.82,4.82,0,0,0-2.5,0,3.65,3.65,0,0,0-1.67.88,3.53,3.53,0,0,0-1.22,1.35,3.65,3.65,0,0,0-.56,1.75A3.55,3.55,0,0,0,234,419c.16.4.33.79.49,1.18a4.71,4.71,0,0,0,1.74,1.72l1.13.47a4.82,4.82,0,0,0,2.5,0,4.62,4.62,0,0,0,3.45-4,3.64,3.64,0,0,0-.08-1.88Z"/><path class="cls-11" d="M251.2,397.92a5.39,5.39,0,0,0-1.95-1.93l-1.26-.52a5.36,5.36,0,0,0-2.81,0,4,4,0,0,0-1.87,1,4,4,0,0,0-1.38,1.52,4.19,4.19,0,0,0-.62,2,4.09,4.09,0,0,0,.1,2.11c.18.45.37.89.55,1.33a5.44,5.44,0,0,0,1.95,1.92l1.27.53a5.32,5.32,0,0,0,2.8,0,4,4,0,0,0,1.88-1,4.09,4.09,0,0,0,1.37-1.52,4,4,0,0,0,.62-2,4,4,0,0,0-.09-2.12Z"/><path class="cls-11" d="M248.89,442.69a1.48,1.48,0,0,0-.61-.55l-.35-.24a2,2,0,0,0-1.33-.17,1.71,1.71,0,0,0-1,.81l-.2.39-.21.51c0,.18,0,.36-.07.55a1.59,1.59,0,0,0,.19.83,1.05,1.05,0,0,0,.28.49,1,1,0,0,0,.39.38,1.06,1.06,0,0,0,.47.27,1,1,0,0,0,.53.15,1.64,1.64,0,0,0,.85,0l.53-.22.43-.35.34-.43.21-.51c0-.18.05-.37.07-.55a1.72,1.72,0,0,0-.18-.84A1.13,1.13,0,0,0,248.89,442.69Z"/><path class="cls-11" d="M258.72,433.78a2.56,2.56,0,0,0-1.4,0,2.62,2.62,0,0,0-1.21.71.18.18,0,0,0-.07.05,2.23,2.23,0,0,0-.6,1v.08c0,.23-.07.46-.09.7a2.63,2.63,0,0,0,.37,1.37,2.68,2.68,0,0,0,2.3,1.32,2.63,2.63,0,0,0,1.37-.37l.55-.43a2.69,2.69,0,0,0,.68-1.18,2.77,2.77,0,0,0,0-1.4A2.73,2.73,0,0,0,258.72,433.78Z"/><path class="cls-11" d="M221.46,352.21c-5.5,1.49-3.2,10,2.31,8.55S227,350.72,221.46,352.21Z"/><path class="cls-11" d="M238.84,372.53a1.66,1.66,0,0,0-.65-.58,2.3,2.3,0,0,0-1.12-.31H237a1.49,1.49,0,0,0-.78.17.64.64,0,0,0-.25.11h0l0,0a3.41,3.41,0,0,0-.48.37l-.35.47a2.21,2.21,0,0,0-.3,1.12c0,.21.05.41.08.61a2.29,2.29,0,0,0,.6,1l.46.35a2.37,2.37,0,0,0,1.13.31l.6-.08a2.29,2.29,0,0,0,1-.6l.36-.47a1.76,1.76,0,0,0,.26-.83,2.07,2.07,0,0,0-.46-1.7Z"/><path class="cls-9" d="M206.61,76.65,105.12,104.09A14.41,14.41,0,0,1,87.46,93.94h0A14.41,14.41,0,0,1,97.6,76.28L199.09,48.85A14.39,14.39,0,0,1,216.75,59h0A14.39,14.39,0,0,1,206.61,76.65Z"/><polygon class="cls-12" points="180.45 83.82 192.99 130.23 157.16 192.64 143.4 141.75 175.97 85.03 180.45 83.82"/><polygon class="cls-12" points="210.5 194.97 217.38 220.43 181.54 282.84 174.66 257.38 210.5 194.97"/><polygon class="cls-12" points="222.09 237.87 228.97 263.29 193.13 325.7 186.26 300.27 222.09 237.87"/><path class="cls-12" d="M247.71,332.61l17.21,63.68L230.61,456a25.53,25.53,0,0,1-4.77-9.34l-14-51.68Z"/><path class="cls-13" d="M898.84,448.83l-26.63,7.43a10.34,10.34,0,0,0-1,.3l9.5,34.08c.32-.12.66-.21,1-.31l26.63-7.42a25.13,25.13,0,0,1,30.95,17.45l11.57,41.46a25.16,25.16,0,0,1-17.46,30.95l-26.63,7.43c-.33.09-.67.18-1,.25l9.51,34.07c.34-.06.67-.16,1-.25l26.64-7.43a60.52,60.52,0,0,0,42-74.52l-11.56-41.46A60.51,60.51,0,0,0,898.84,448.83Z"/><path class="cls-14" d="M966.19,519.67a5.71,5.71,0,0,1-7-4l-7.55-27.08A33.83,33.83,0,0,0,910,465.15a5.72,5.72,0,0,1-3.08-11,45.28,45.28,0,0,1,55.72,31.42l7.55,27.07A5.73,5.73,0,0,1,966.19,519.67Z"/><path class="cls-11" d="M893,450.46l9.51,34.07-20.8,5.8c-.33.1-.67.19-1,.31l-9.5-34.08a10.34,10.34,0,0,1,1-.3Z"/><path class="cls-11" d="M906.77,580.2l20.8-5.8,9.5,34.07-20.8,5.8c-.33.09-.66.19-1,.25l-9.51-34.07C906.1,580.38,906.44,580.29,906.77,580.2Z"/><path class="cls-13" d="M881.22,440.25l49.26,176.66a21.79,21.79,0,0,1-15.12,26.82L770,684.25a21.73,21.73,0,0,1-24.59-10,20.44,20.44,0,0,1-2.23-5.16L694,492.47a5.35,5.35,0,0,1,3.71-6.57l177-49.36A5.36,5.36,0,0,1,881.22,440.25Z"/><path class="cls-14" d="M868,438.41a7.65,7.65,0,0,1-5.3,9.39l-168.1,46.88-.61-2.21a5.35,5.35,0,0,1,3.71-6.57Z"/><path class="cls-14" d="M756.49,666.35a5.74,5.74,0,0,1-7-4l-30.67-110a5.72,5.72,0,0,1,11-3.07l30.67,110A5.73,5.73,0,0,1,756.49,666.35Z"/><path class="cls-11" d="M881.22,440.25l49.26,176.66a21.79,21.79,0,0,1-15.12,26.82L770,684.25a21.73,21.73,0,0,1-24.59-10c4.21,2.58,9.25,3.51,15.61,1.74l145.29-40.52a21.73,21.73,0,0,0,15.12-26.81L885.61,480.15c-3.67-13.18-7.31-26.38-11-39.55-.35-1.29-.67-2.55-1-3.76l1.06-.3A5.36,5.36,0,0,1,881.22,440.25Z"/><path class="cls-9" d="M820.07,561a7.77,7.77,0,1,1-9.58-5.4A7.78,7.78,0,0,1,820.07,561Z"/><path class="cls-9" d="M843.52,554.49c7.33-12.3,9.46-22.87,4.6-27.64s-15.4-2.42-27.54,5.16c-7-12.5-15.07-19.64-21.64-17.81s-9.79,12.14-9.3,26.46a73.1,73.1,0,0,0-8.13.33c-10.37,1-16.79,4.39-18.1,9.48-1.7,6.6,5.6,14.54,18.24,21.27-7.33,12.3-9.47,22.87-4.6,27.64,2.72,2.67,7.29,3.17,13.18,1.53a45,45,0,0,0,7.22-2.78,72.1,72.1,0,0,0,7.12-3.93c7,12.51,15.08,19.66,21.65,17.83s9.79-12.12,9.3-26.43a56.83,56.83,0,0,0,15.67-1.67c5.78-1.61,9.59-4.37,10.56-8.17C863.45,569.16,856.15,561.22,843.52,554.49Zm-8-27.57c5.08-1.42,9.14-1.17,11.46,1.11,4.21,4.13,1.89,14.11-5,25.66a111.46,111.46,0,0,0-14.31-6,110.44,110.44,0,0,0-6.26-14.18A56.5,56.5,0,0,1,835.5,526.92ZM825,575.33q-3.51,3.58-7.15,6.78c-3.16-.56-6.39-1.26-9.65-2.1s-6.42-1.78-9.46-2.81c-1.09-3-2.1-6.16-3-9.4s-1.67-6.45-2.29-9.59c2.06-2.46,4.28-4.9,6.63-7.3s4.77-4.68,7.18-6.8c3.16.58,6.38,1.28,9.62,2.11s6.42,1.79,9.46,2.82c1.09,3,2.1,6.15,3,9.39s1.67,6.45,2.29,9.6C829.61,570.48,827.39,572.92,825,575.33Zm7-5.2a110.24,110.24,0,0,1,1.64,13.69A108.35,108.35,0,0,1,820,582.46c2.1-1.89,4.19-3.89,6.24-6S830.24,572.25,832.07,570.13ZM816.29,583.5a107.42,107.42,0,0,1-11,8.31,109.94,109.94,0,0,1-5.71-12.61c2.67.87,5.44,1.68,8.3,2.41S813.52,583,816.29,583.5Zm-19.52-7a107.85,107.85,0,0,1-12.68-5.43,109.57,109.57,0,0,1,8-11.21q.87,4.13,2.06,8.4C795,571.09,795.85,573.84,796.77,576.49Zm-3.68-20.38a111.36,111.36,0,0,1-1.64-13.75,107.48,107.48,0,0,1,13.75,1.39c-2.09,1.89-4.18,3.88-6.26,6S794.93,554,793.09,556.11Zm15.81-13.37A109.74,109.74,0,0,1,820,534.47,110.65,110.65,0,0,1,825.63,547c-2.67-.86-5.44-1.67-8.3-2.41S811.69,543.27,808.9,542.74Zm19.49,7a109.55,109.55,0,0,1,12.68,5.43,107.42,107.42,0,0,1-8,11.21c-.58-2.75-1.26-5.55-2.06-8.39S829.31,552.39,828.39,549.74Zm-29-33.94c5.68-1.59,13.16,5.42,19.72,17.14a112,112,0,0,0-12.33,9.41,112.6,112.6,0,0,0-15.41-1.65C790.92,527.26,793.7,517.38,799.39,515.8ZM765,550.88c.79-3.07,4.1-5.48,9.38-7a43.3,43.3,0,0,1,7.28-1.3,71.71,71.71,0,0,1,8-.31,112.51,112.51,0,0,0,2,15.43,111.18,111.18,0,0,0-9.14,12.51C770.69,563.94,763.54,556.6,765,550.88Zm31.73,45.76c-8.61,4.1-15.36,4.67-18.54,1.56-4.21-4.13-1.89-14.11,5-25.66a110.05,110.05,0,0,0,14.31,6,110.59,110.59,0,0,0,6.29,14.23A73.83,73.83,0,0,1,796.74,596.64Zm29,13.8C820.09,612,812.6,605,806,593.27a113.12,113.12,0,0,0,12.34-9.38,112.32,112.32,0,0,0,15.42,1.66C834.24,599,831.46,608.85,825.78,610.44Zm34.37-35.09c-1.46,5.71-11.27,8.69-24.7,8.52a113,113,0,0,0-2-15.38A113.6,113.6,0,0,0,842.62,556C854.47,562.3,861.62,569.64,860.15,575.35Z"/><path class="cls-9" d="M798.94,514.2c6.57-1.83,14.65,5.31,21.64,17.81a56.44,56.44,0,0,1,14.28-6.68c5.78-1.61,10.45-1.23,13.26,1.52,4.86,4.77,2.73,15.34-4.6,27.64,12.63,6.73,19.93,14.67,18.23,21.27-1,3.8-4.78,6.56-10.56,8.17h0a56.83,56.83,0,0,1-15.67,1.67c.49,14.31-2.73,24.6-9.3,26.43s-14.66-5.32-21.65-17.83a72.1,72.1,0,0,1-7.12,3.93,45,45,0,0,1-7.22,2.78c-5.89,1.64-10.46,1.14-13.18-1.53-4.87-4.77-2.73-15.34,4.6-27.64C769,565,761.71,557.07,763.41,550.47c1-3.69,4.6-6.48,10.49-8.12a45,45,0,0,1,7.61-1.36,73.1,73.1,0,0,1,8.13-.33c-.49-14.32,2.73-24.62,9.3-26.46m7.84,28.15a112,112,0,0,1,12.33-9.41c-6.56-11.72-14-18.73-19.72-17.14s-8.47,11.46-8,24.9a112.6,112.6,0,0,1,15.41,1.65m-24.23,27.91a111.18,111.18,0,0,1,9.14-12.51,112.51,112.51,0,0,1-2-15.43,71.71,71.71,0,0,0-8,.31,43.3,43.3,0,0,0-7.28,1.3c-5.28,1.47-8.59,3.88-9.38,7-1.47,5.72,5.68,13.06,17.54,19.38M842,553.69c6.87-11.55,9.19-21.53,5-25.66-2.32-2.28-6.38-2.53-11.46-1.11a56.5,56.5,0,0,0-14.09,6.61,110.44,110.44,0,0,1,6.26,14.18,111.46,111.46,0,0,1,14.31,6m-48.89,2.42q2.76-3.2,5.85-6.36c2.08-2.12,4.17-4.11,6.26-6a107.48,107.48,0,0,0-13.75-1.39,111.36,111.36,0,0,0,1.64,13.75M825.63,547A110.65,110.65,0,0,0,820,534.47a109.74,109.74,0,0,0-11.05,8.27c2.79.53,5.6,1.15,8.44,1.88s5.62,1.55,8.29,2.41m-7.74,35.08q3.63-3.2,7.15-6.78c2.35-2.41,4.57-4.85,6.63-7.3-.62-3.15-1.38-6.36-2.29-9.6s-1.91-6.38-3-9.39c-3-1-6.2-2-9.46-2.82s-6.46-1.53-9.62-2.11c-2.41,2.12-4.82,4.39-7.18,6.8s-4.57,4.84-6.63,7.3c.62,3.14,1.39,6.35,2.29,9.59s1.91,6.38,3,9.4q4.56,1.54,9.46,2.81c3.26.84,6.49,1.54,9.65,2.1M833,566.38a107.42,107.42,0,0,0,8-11.21,109.55,109.55,0,0,0-12.68-5.43c.92,2.65,1.79,5.4,2.58,8.25s1.48,5.64,2.06,8.39m-36.26,10.11c-.92-2.65-1.79-5.4-2.58-8.24s-1.48-5.65-2.06-8.4a109.57,109.57,0,0,0-8,11.21,107.85,107.85,0,0,0,12.68,5.43m-6.94,22.81a43.93,43.93,0,0,0,6.91-2.66,73.83,73.83,0,0,0,7-3.89,110.59,110.59,0,0,1-6.29-14.23,110.05,110.05,0,0,1-14.31-6c-6.87,11.55-9.19,21.53-5,25.66,2.27,2.22,6.35,2.57,11.63,1.1m61.09-17.07c5.09-1.41,8.43-3.73,9.23-6.88,1.47-5.71-5.68-13.05-17.53-19.38a113.6,113.6,0,0,1-9.15,12.52,113,113,0,0,1,2,15.38,56.58,56.58,0,0,0,15.47-1.64m-45.68,9.58a107.42,107.42,0,0,0,11-8.31c-2.77-.53-5.59-1.15-8.46-1.89s-5.63-1.54-8.3-2.41a109.94,109.94,0,0,0,5.71,12.61m28.47-8a110.24,110.24,0,0,0-1.64-13.69q-2.75,3.18-5.85,6.35c-2.05,2.09-4.14,4.09-6.24,6a108.35,108.35,0,0,0,13.73,1.36m-7.93,26.62c5.68-1.59,8.46-11.46,8-24.89a112.32,112.32,0,0,1-15.42-1.66A113.12,113.12,0,0,1,806,593.27C812.6,605,820.09,612,825.78,610.44M798.63,513.1c-6.8,1.9-10.48,11.5-10.16,26.41-2.49,0-4.86.12-7.07.34a46,46,0,0,0-7.81,1.39c-6.34,1.77-10.24,4.86-11.29,9-1.75,6.83,4.71,14.81,17.76,22-7.45,12.91-8.85,23.08-3.81,28,3,2.95,8,3.58,14.29,1.81a45.76,45.76,0,0,0,7.4-2.85,70.16,70.16,0,0,0,6.22-3.37c7.45,12.93,15.57,19.24,22.37,17.34S837,601.65,836.7,586.75A55.43,55.43,0,0,0,851.49,585c6.39-1.78,10.32-4.88,11.37-9,1.76-6.84-4.7-14.82-17.76-22,7.46-12.9,8.86-23.08,3.82-28-3-3-8-3.58-14.37-1.8A55.5,55.5,0,0,0,821,530.41c-7.45-12.9-15.56-19.2-22.36-17.31Zm-6.14,26.5c-.27-12.72,2.46-21.38,7.2-22.7s11.55,4.66,17.9,15.67a114.26,114.26,0,0,0-11.15,8.56,115.1,115.1,0,0,0-14-1.53Zm-10.34,29.15c-11.14-6.13-17.26-12.82-16-17.58.66-2.6,3.71-4.78,8.58-6.14a41.81,41.81,0,0,1,7.09-1.26c2.13-.21,4.43-.32,6.84-.32a114.1,114.1,0,0,0,1.84,14,113.34,113.34,0,0,0-8.32,11.32ZM822.92,534A54.21,54.21,0,0,1,835.8,528c3.38-.94,7.92-1.56,10.36.83,3.51,3.44,1.73,12.34-4.63,23.34a111.57,111.57,0,0,0-13-5.38A112.49,112.49,0,0,0,822.92,534Zm-29.11,19.61c-.55-3.43-.93-6.78-1.14-10,3.2.15,6.55.48,10,1q-2.34,2.18-4.55,4.43c-1.45,1.49-2.9,3-4.31,4.61Zm17.67-11.48c2.67-2.17,5.37-4.17,8-6,1.48,2.86,2.88,5.91,4.17,9.1-2-.61-4.05-1.19-6.07-1.71s-4.07-1-6.14-1.43Zm-16.76,16.44c2-2.32,4.06-4.61,6.22-6.81s4.4-4.33,6.7-6.37c3,.55,6,1.22,9,2s6,1.65,8.85,2.61c1,2.88,2,5.83,2.79,8.8s1.56,6,2.16,9c-2,2.33-4.06,4.62-6.22,6.82s-4.4,4.34-6.67,6.36c-3-.55-6-1.22-9-2s-5.95-1.64-8.85-2.61c-1-2.87-2-5.83-2.79-8.8s-1.55-6-2.16-9Zm38.91,5.27c-.47-2-1-4.1-1.55-6.11s-1.18-4-1.84-6c3.23,1.23,6.31,2.57,9.19,4-1.73,2.71-3.68,5.45-5.8,8.16Zm-47.9,6.81c1.73-2.71,3.68-5.44,5.8-8.16q.72,3.09,1.56,6.11c.56,2,1.17,4,1.83,6-3.22-1.23-6.3-2.56-9.19-4Zm3.79,27.59c-4.86,1.36-8.6,1.07-10.52-.8-3.51-3.45-1.73-12.34,4.63-23.34a115.18,115.18,0,0,0,13,5.38,114.16,114.16,0,0,0,5.67,12.91c-2.07,1.25-4.09,2.34-6,3.27a42.52,42.52,0,0,1-6.72,2.58Zm45.17-29.39A112.83,112.83,0,0,0,843,557.49c11.14,6.12,17.26,12.81,16,17.58-.85,3.3-5.06,5.12-8.43,6.06a54.21,54.21,0,0,1-14.1,1.6,113,113,0,0,0-1.83-13.93Zm-29,21.36c-1.48-2.87-2.89-5.93-4.19-9.15,2,.62,4,1.19,6.07,1.71s4.08,1,6.18,1.44c-2.69,2.2-5.39,4.21-8.06,6Zm16.86-8.47q2.33-2.18,4.52-4.41c1.46-1.49,2.9-3,4.31-4.6.55,3.4.93,6.74,1.14,10-3.21-.15-6.56-.46-10-.94Zm-15,11.95a115,115,0,0,0,11.15-8.53,115.12,115.12,0,0,0,14,1.54c.27,12.71-2.46,21.36-7.2,22.69s-11.56-4.68-17.91-15.7Z"/><path class="cls-9" d="M830.54,627.51A66.85,66.85,0,1,1,877,545.16,66.94,66.94,0,0,1,830.54,627.51Zm-35.2-126.22a64.18,64.18,0,1,0,79.07,44.58A64.27,64.27,0,0,0,795.34,501.29Z"/><path class="cls-9" d="M794.62,498.72a66.85,66.85,0,1,1-46.44,82.35,66.93,66.93,0,0,1,46.44-82.35m35.2,126.22a64.18,64.18,0,1,0-79.07-44.58,64.26,64.26,0,0,0,79.07,44.58m-35.5-127.32a68,68,0,1,0,83.76,47.23,68.07,68.07,0,0,0-83.76-47.23Zm35.2,126.22a63,63,0,1,1,43.79-77.66,63.12,63.12,0,0,1-43.79,77.66Z"/></g></g></g></svg>