<?xml version="1.0" encoding="utf-8"?>
<!-- Generator: Adobe Illustrator 24.0.0, SVG Export Plug-In . SVG Version: 6.00 Build 0)  -->
<svg version="1.1" xmlns="http://www.w3.org/2000/svg" xmlns:xlink="http://www.w3.org/1999/xlink" x="0px" y="0px"
	 viewBox="0 0 1920 1080" style="enable-background:new 0 0 1920 1080;" xml:space="preserve">
<style type="text/css">
	.st0{fill:#597DDB;}
	.st1{fill:#4766C6;}
	.st2{fill:#B8D5FE;}
	.st3{fill:#284AA3;}
	.st4{clip-path:url(#SVGID_2_);}
</style>
<g id="BACKGROUND">
	<rect class="st0" width="1920" height="1080"/>
</g>
<g id="OBJECTS">
	<g>
		<polygon class="st1" points="1462.72,777.4 1549.09,827.27 1713.78,732.19 1713.78,612.13 1752.68,634.58 1833.92,587.68 
			1833.92,493.86 1752.68,446.95 1671.43,493.86 1671.43,517.58 1549.09,446.95 1408.2,528.3 1249.01,436.39 1038.81,557.74 
			1009.41,540.77 888.04,610.84 888.04,750.99 1009.41,821.06 1035.3,806.12 1035.3,806.54 1249.01,929.93 1462.72,806.54 		"/>
		<polygon class="st1" points="1526.88,433.63 1526.88,311.08 1420.75,249.81 1314.63,311.08 1314.63,433.63 1420.75,494.9 		"/>
		<polygon class="st1" points="1283,396.63 1283,317.11 1214.13,277.35 1145.27,317.11 1145.27,396.63 1214.13,436.39 		"/>
		<polygon class="st1" points="1622.89,287.29 1622.89,247.53 1588.46,227.65 1554.03,247.53 1554.03,287.29 1588.46,307.17 		"/>
		<polygon class="st1" points="1548.43,234.07 1548.43,208.39 1526.2,195.56 1503.96,208.39 1503.96,234.07 1526.2,246.9 		"/>
		<polygon class="st1" points="1083.49,514.57 1083.49,464.32 1039.97,439.2 996.45,464.32 996.45,514.57 1039.97,539.7 		"/>
		<polygon class="st1" points="931.55,859.58 931.55,909.83 975.07,934.96 1018.59,909.83 1018.59,859.58 975.07,834.45 		"/>
		<polygon class="st1" points="975.07,541.46 975.07,513.47 950.84,499.48 926.6,513.47 926.6,541.46 950.84,555.45 		"/>
		<polygon class="st1" points="1430.35,855.91 1430.35,925.59 1490.7,960.44 1551.05,925.59 1551.05,855.91 1490.7,821.06 		"/>
		<polygon class="st1" points="1573.81,912.51 1573.81,947.35 1603.98,964.77 1634.16,947.35 1634.16,912.51 1603.98,895.08 		"/>
		<polygon class="st1" points="1366.46,917.16 1366.46,942.7 1388.58,955.47 1410.71,942.7 1410.71,917.16 1388.58,904.38 		"/>
		<polygon class="st1" points="1846.91,389.48 1806.28,412.93 1806.28,459.84 1846.91,483.29 1887.53,459.84 1887.53,412.93 		"/>
		<polygon class="st1" points="1817.2,288.13 1817.2,256.48 1789.79,240.65 1762.38,256.48 1762.38,288.13 1789.79,303.96 		"/>
		<polygon class="st1" points="1861.4,240.66 1861.4,219.25 1842.85,208.55 1824.31,219.25 1824.31,240.66 1842.85,251.36 		"/>
		<polygon class="st1" points="1748.16,663.82 1748.16,730.93 1806.28,764.49 1864.4,730.93 1864.4,663.82 1806.28,630.27 		"/>
		<polygon class="st1" points="1696.03,779.85 1696.03,827.33 1737.14,851.06 1778.26,827.33 1778.26,779.85 1737.14,756.11 		"/>
	</g>
	<g>
		<g>
			<path class="st2" d="M978.03,324.85c-0.12-0.09-0.23-0.18-0.35-0.28c-3.56-2.98-5.17-8.18-4.2-13.57
				c0.81-4.5,3.14-8.49,5.46-12.2l0,0c15.39-24.53,34.89-46.38,57.95-64.93c1.24-1,3.28-2.95,5.65-5.21
				c13.78-13.17,28.08-25.81,38.2-23.18c3.75,0.97,6.41,3.93,7.91,8.79c1.82,5.9-1.3,11.61-4.95,16.9
				c-17.07,24.74-36.06,48.48-56.45,70.55c-9.47,10.25-19.87,20.6-33.59,24.66C987.28,328.26,981.75,327.71,978.03,324.85z
				 M982.58,301.08c-2.19,3.48-4.2,6.92-4.87,10.67c-0.68,3.82,0.39,7.56,2.73,9.52c3.46,2.9,9.02,1.86,12.01,0.98
				c12.68-3.75,22.59-13.64,31.66-23.46c20.26-21.92,39.12-45.5,56.07-70.07c3.03-4.4,5.66-9.04,4.38-13.19
				c-1.05-3.39-2.64-5.32-4.89-5.9c-8.65-2.25-25.88,14.22-34.16,22.13c-2.54,2.42-4.54,4.34-5.92,5.45
				C1016.89,255.47,997.71,276.96,982.58,301.08L982.58,301.08z"/>
		</g>
		<g>
			<path class="st2" d="M1042.45,337.62c-0.2-0.16-0.41-0.32-0.61-0.49c-3.5-2.95-5.79-6.97-7.83-10.83
				c-13.55-25.59-22.72-53.4-27.26-82.65c-0.24-1.57-0.91-4.32-1.69-7.5c-3.55-14.58-8.93-36.6-0.98-44.67
				c2.72-2.76,6.61-3.59,11.57-2.46c6.03,1.38,9.4,6.93,12.16,12.73c12.89,27.15,23.95,55.46,32.87,84.16
				c4.14,13.33,7.9,27.51,4.56,41.42c-1.61,6.68-5,11.28-9.55,12.94C1051.55,341.79,1046.54,340.77,1042.45,337.62z M1017.86,194.73
				c-0.95-0.73-1.99-1.26-3.14-1.53c-3.46-0.79-5.93-0.37-7.56,1.28c-6.27,6.37-0.63,29.52,2.09,40.65c0.83,3.41,1.49,6.1,1.76,7.86
				c4.46,28.78,13.48,56.13,26.81,81.3l0,0c1.92,3.63,3.89,7.1,6.81,9.56c2.97,2.52,6.74,3.45,9.61,2.4
				c4.26-1.56,6.12-6.88,6.85-9.91c3.09-12.85-0.52-26.39-4.49-39.14c-8.86-28.51-19.84-56.63-32.65-83.6
				C1022.28,200.08,1020.39,196.69,1017.86,194.73z"/>
		</g>
		<g>
			<path class="st2" d="M959.63,258.71c-3.01-2.32-5.17-4.93-5.98-7.86c-1.03-3.73,0.2-7.52,3.66-11.25
				c4.2-4.53,10.7-4.68,17.1-4.16c29.96,2.41,60.01,6.99,89.32,13.62c13.61,3.08,27.77,6.91,38.15,16.76
				c4.98,4.73,7.27,9.97,6.43,14.74c-0.8,4.57-4.5,8.56-9.65,10.42c-4.3,1.55-8.93,1.53-13.29,1.37l0,0
				c-28.94-1.06-57.61-7.02-85.21-17.72c-1.49-0.58-4.2-1.37-7.34-2.29C982.29,269.26,967.82,265.03,959.63,258.71z M1095.76,266.22
				c-9.27-7.16-21.32-10.35-32.98-12.98c-29.11-6.58-58.96-11.13-88.72-13.52c-5.32-0.43-10.66-0.38-13.61,2.8
				c-2.41,2.6-3.28,4.95-2.67,7.19c2.38,8.61,25.25,15.3,36.24,18.51c3.37,0.98,6.03,1.76,7.68,2.4
				c27.15,10.52,55.35,16.39,83.81,17.43l0,0c4.11,0.15,8.1,0.18,11.68-1.12c3.65-1.32,6.35-4.12,6.88-7.12
				c0.78-4.47-2.9-8.74-5.16-10.89C1097.91,267.97,1096.85,267.07,1095.76,266.22z"/>
		</g>
		<path class="st3" d="M1035.61,217.19c-1.98,2.57-5.67,3.04-8.24,1.06c-2.57-1.98-3.04-5.67-1.06-8.24s5.67-3.04,8.24-1.06
			C1037.11,210.93,1037.59,214.62,1035.61,217.19z"/>
		<path class="st3" d="M1086.57,295.05c-2.71,3.51-7.75,4.16-11.26,1.45c-3.51-2.71-4.16-7.75-1.45-11.26
			c2.71-3.51,7.75-4.16,11.26-1.45C1088.63,286.5,1089.28,291.54,1086.57,295.05z"/>
		<path class="st3" d="M990.07,242.54c-2.19,2.84-6.28,3.37-9.12,1.17c-2.84-2.19-3.37-6.28-1.17-9.12
			c2.19-2.84,6.28-3.37,9.12-1.17C991.73,235.62,992.26,239.7,990.07,242.54z"/>
		
			<ellipse transform="matrix(0.2733 -0.9619 0.9619 0.2733 555.9119 1208.9008)" class="st3" cx="1078.09" cy="236.51" rx="6.84" ry="6.84"/>
		<path class="st3" d="M989.06,301.16c-2.72,3.52-7.77,4.17-11.29,1.45c-3.52-2.72-4.17-7.77-1.45-11.29
			c2.72-3.52,7.77-4.17,11.29-1.45C991.13,292.58,991.78,297.64,989.06,301.16z"/>
		<path class="st3" d="M1048.04,337.9c-2.34,3.04-6.7,3.6-9.74,1.25c-3.04-2.34-3.6-6.7-1.25-9.74c2.34-3.04,6.7-3.6,9.74-1.25
			C1049.82,330.51,1050.39,334.87,1048.04,337.9z"/>
	</g>
	<g>
		<defs>
			<rect id="SVGID_1_" width="1920" height="1080"/>
		</defs>
		<clipPath id="SVGID_2_">
			<use xlink:href="#SVGID_1_"  style="overflow:visible;"/>
		</clipPath>
		<g class="st4">
			<g>
				<path class="st2" d="M1770.5,1119.39c-0.23-0.18-0.45-0.36-0.67-0.54c-6.93-5.8-10.07-15.94-8.19-26.45
					c1.57-8.78,6.12-16.56,10.65-23.78l0,0c30-47.82,68-90.41,112.97-126.57c2.42-1.95,6.4-5.75,11.01-10.16
					c26.87-25.68,54.74-50.32,74.47-45.19c7.31,1.9,12.5,7.66,15.42,17.14c3.55,11.51-2.53,22.63-9.64,32.93
					c-33.27,48.23-70.29,94.5-110.05,137.52c-18.46,19.98-38.73,40.15-65.48,48.07C1788.53,1126.04,1777.75,1124.98,1770.5,1119.39z
					 M1779.37,1073.06c-4.26,6.79-8.19,13.5-9.5,20.81c-1.33,7.45,0.76,14.73,5.32,18.56c6.74,5.66,17.58,3.63,23.42,1.9
					c24.71-7.31,44.03-26.6,61.71-45.72c39.49-42.73,76.26-88.69,109.3-136.59c5.91-8.57,11.03-17.61,8.53-25.72
					c-2.04-6.6-5.16-10.37-9.53-11.51c-16.86-4.38-50.44,27.71-66.58,43.14c-4.94,4.73-8.85,8.46-11.55,10.63
					C1846.26,984.15,1808.87,1026.03,1779.37,1073.06L1779.37,1073.06z"/>
			</g>
			<g>
				<path class="st2" d="M1896.09,1144.28c-0.4-0.31-0.79-0.62-1.18-0.95c-6.82-5.75-11.28-13.58-15.27-21.11
					c-26.41-49.89-44.29-104.1-53.13-161.12c-0.48-3.07-1.78-8.42-3.29-14.62c-6.93-28.41-17.4-71.35-1.9-87.09
					c5.3-5.38,12.89-6.99,22.55-4.79c11.75,2.68,18.33,13.51,23.7,24.82c25.13,52.92,46.69,108.12,64.07,164.06
					c8.07,25.98,15.41,53.62,8.89,80.74c-3.13,13.03-9.75,21.99-18.62,25.23C1913.82,1152.41,1904.05,1150.42,1896.09,1144.28z
					 M1848.14,865.75c-1.85-1.43-3.88-2.47-6.13-2.98c-6.74-1.54-11.56-0.72-14.73,2.5c-12.23,12.41-1.22,57.54,4.07,79.23
					c1.62,6.65,2.9,11.89,3.43,15.32c8.7,56.1,26.28,109.42,52.26,158.48l0,0c3.75,7.08,7.59,13.84,13.27,18.63
					c5.79,4.91,13.14,6.72,18.73,4.67c8.31-3.04,11.94-13.41,13.36-19.33c6.02-25.06-1.02-51.43-8.74-76.3
					c-17.27-55.57-38.68-110.39-63.64-162.95C1856.76,876.17,1853.08,869.56,1848.14,865.75z"/>
			</g>
			<g>
				<path class="st2" d="M1734.63,990.46c-5.87-4.53-10.08-9.6-11.66-15.32c-2.01-7.28,0.39-14.66,7.13-21.92
					c8.19-8.83,20.87-9.12,33.34-8.12c58.4,4.7,116.98,13.63,174.12,26.54c26.54,6,54.14,13.47,74.37,32.67
					c9.72,9.23,14.17,19.43,12.54,28.74c-1.56,8.91-8.77,16.69-18.81,20.32c-8.39,3.03-17.4,2.98-25.92,2.66l0,0
					c-56.41-2.07-112.3-13.69-166.1-34.54c-2.9-1.12-8.18-2.67-14.3-4.46C1778.81,1011.04,1750.6,1002.79,1734.63,990.46z
					 M2000,1005.11c-18.08-13.95-41.57-20.17-64.28-25.3c-56.75-12.83-114.93-21.7-172.94-26.36c-10.38-0.83-20.77-0.75-26.54,5.47
					c-4.7,5.07-6.4,9.65-5.2,14.01c4.63,16.79,49.22,29.83,70.65,36.09c6.56,1.92,11.75,3.44,14.98,4.69
					c52.93,20.52,107.9,31.95,163.38,33.98l0,0c8.01,0.29,15.78,0.35,22.77-2.17c7.12-2.57,12.38-8.02,13.41-13.89
					c1.52-8.71-5.65-17.04-10.06-21.23C2004.19,1008.51,2002.13,1006.76,2000,1005.11z"/>
			</g>
			<path class="st3" d="M1882.74,909.53c-3.86,5.01-11.05,5.93-16.06,2.07s-5.93-11.05-2.07-16.06c3.86-5.01,11.05-5.93,16.06-2.07
				C1885.68,897.33,1886.6,904.53,1882.74,909.53z"/>
			
				<ellipse transform="matrix(0.7628 -0.6467 0.6467 0.7628 -212.8461 1523.3096)" class="st3" cx="1969.7" cy="1051.74" rx="15.65" ry="15.65"/>
			
				<ellipse transform="matrix(0.9918 -0.1278 0.1278 0.9918 -106.9289 235.7679)" class="st3" cx="1783.93" cy="951.21" rx="12.67" ry="12.67"/>
			<path class="st3" d="M1976.1,955.34c-4.5,5.83-12.87,6.91-18.7,2.41c-5.83-4.5-6.91-12.87-2.41-18.7
				c4.5-5.83,12.87-6.91,18.7-2.41S1980.6,949.51,1976.1,955.34z"/>
			
				<ellipse transform="matrix(0.867 -0.4984 0.4984 0.867 -293.3293 1028.3741)" class="st3" cx="1779.59" cy="1063.62" rx="15.69" ry="15.69"/>
			<path class="st3" d="M1906.98,1144.84c-4.57,5.92-13.06,7.01-18.98,2.45c-5.92-4.57-7.01-13.06-2.45-18.98
				c4.57-5.92,13.06-7.01,18.98-2.45C1910.45,1130.43,1911.55,1138.93,1906.98,1144.84z"/>
		</g>
		<g class="st4">
			<g>
				<g>
					<path class="st2" d="M420.08,53.33c-0.46,0-0.91-0.12-1.32-0.36c-7.93-4.75-16.16-9.41-24.11-13.92
						c-7.97-4.52-16.22-9.2-24.19-13.97c-0.76-0.45-1.23-1.27-1.25-2.16c-0.18-9.11-0.46-18.45-0.73-27.48
						c-0.27-9.05-0.55-18.4-0.73-27.53c-0.02-0.87,0.41-1.69,1.13-2.18c14.24-9.65,30.4-18.6,49.41-27.36
						c0.78-0.36,1.68-0.31,2.41,0.14l46.19,28.11c0.67,0.41,1.12,1.1,1.22,1.88c2.08,17.06,3.79,35.79,2.18,57.08
						c-0.07,0.93-0.64,1.75-1.5,2.14c-17.21,7.86-33.62,17.18-47.4,25.27C420.98,53.21,420.53,53.33,420.08,53.33z M374.31,21.39
						c7.55,4.49,15.33,8.9,22.87,13.18c7.55,4.28,15.34,8.7,22.91,13.2c13.25-7.75,28.8-16.54,45.17-24.1
						c1.35-19.72-0.18-37.26-2.12-53.32L419.2-56.4c-17.7,8.22-32.87,16.61-46.28,25.6c0.18,8.66,0.44,17.51,0.7,26.08
						C373.87,3.86,374.14,12.71,374.31,21.39z"/>
				</g>
				<g>
					<path class="st2" d="M419.92-57.11c-1.33,0-2.45-1.02-2.56-2.37c-1.03-13.07-1.36-26.35-1-39.45c0.04-1.42,1.19-2.59,2.64-2.5
						c1.42,0.04,2.54,1.22,2.5,2.64c-0.36,12.92-0.03,26.01,0.99,38.91c0.11,1.41-0.95,2.65-2.36,2.76
						C420.05-57.11,419.98-57.11,419.92-57.11z"/>
				</g>
				<g>
					<path class="st2" d="M369.57-30.08c-0.45,0-0.91-0.12-1.32-0.37c-9.97-5.98-19.75-12.54-29.07-19.49
						c-1.14-0.85-1.37-2.46-0.52-3.6c0.85-1.14,2.46-1.37,3.6-0.52c9.19,6.85,18.83,13.31,28.65,19.21
						c1.22,0.73,1.61,2.31,0.88,3.53C371.3-30.52,370.44-30.08,369.57-30.08z"/>
				</g>
				<g>
					<path class="st2" d="M467.09-28.27c-0.84,0-1.66-0.41-2.15-1.16c-0.78-1.19-0.44-2.78,0.74-3.56l27.96-18.29
						c1.19-0.78,2.78-0.44,3.56,0.74c0.78,1.19,0.44,2.78-0.74,3.56l-27.96,18.29C468.06-28.41,467.57-28.27,467.09-28.27z"/>
				</g>
				<g>
					<path class="st2" d="M346.53,40.99c-0.86,0-1.7-0.43-2.18-1.21c-0.75-1.2-0.38-2.79,0.82-3.54l24.73-15.44
						c1.21-0.75,2.79-0.38,3.54,0.82c0.75,1.2,0.38,2.79-0.82,3.54L347.89,40.6C347.47,40.87,347,40.99,346.53,40.99z"/>
				</g>
				<g>
					<path class="st2" d="M420.97,77.83c-1.4,0-2.54-1.12-2.57-2.52l-0.49-25.38c-0.03-1.42,1.1-2.59,2.52-2.62
						c1.43-0.07,2.59,1.1,2.62,2.52l0.49,25.38c0.03,1.42-1.1,2.59-2.52,2.62C421.01,77.83,420.99,77.83,420.97,77.83z"/>
				</g>
				<g>
					<path class="st2" d="M489.06,46.7c-0.64,0-1.28-0.24-1.78-0.72c-6.97-6.7-14.52-12.91-22.44-18.46
						c-1.16-0.82-1.44-2.42-0.63-3.58c0.81-1.16,2.42-1.44,3.58-0.63c8.13,5.7,15.89,12.08,23.05,18.96
						c1.02,0.98,1.06,2.61,0.07,3.63C490.41,46.44,489.73,46.7,489.06,46.7z"/>
				</g>
				<g>
					<path class="st2" d="M420.37-3.81c-0.44,0-0.88-0.11-1.27-0.33c-15.88-9.01-32.29-17.57-48.75-25.45
						c-1.28-0.61-1.82-2.15-1.21-3.43c0.61-1.28,2.15-1.82,3.43-1.21c16.16,7.73,32.26,16.12,47.87,24.94
						c7.07-3.58,14.66-7.3,22.01-10.9c7.77-3.81,15.8-7.74,23.2-11.5c1.26-0.64,2.81-0.14,3.46,1.13c0.64,1.27,0.14,2.81-1.13,3.46
						c-7.43,3.77-15.48,7.72-23.26,11.53c-7.76,3.8-15.78,7.73-23.17,11.49C421.17-3.9,420.77-3.81,420.37-3.81z"/>
				</g>
				<g>
					<path class="st2" d="M420.83,52.45c-1.41,0-2.56-1.14-2.57-2.55l-0.38-56.22c-0.01-1.42,1.13-2.58,2.55-2.59
						c1.42-0.04,2.58,1.13,2.59,2.55l0.38,56.22c0.01,1.42-1.13,2.58-2.55,2.59C420.84,52.45,420.84,52.45,420.83,52.45z"/>
				</g>
			</g>
			<circle class="st3" cx="418.46" cy="-102.81" r="8.11"/>
			<path class="st3" d="M343.96-53.04c0,3.4-2.76,6.16-6.16,6.16c-3.4,0-6.16-2.76-6.16-6.16c0-3.4,2.76-6.16,6.16-6.16
				C341.2-59.2,343.96-56.44,343.96-53.04z"/>
			
				<ellipse transform="matrix(0.685 -0.7286 0.7286 0.685 138.8314 305.4691)" class="st3" cx="422.64" cy="-7.8" rx="9.64" ry="9.64"/>
			<path class="st3" d="M351.14,41.28c0,3.59-2.91,6.5-6.5,6.5c-3.59,0-6.5-2.91-6.5-6.5c0-3.59,2.91-6.5,6.5-6.5
				C348.23,34.78,351.14,37.69,351.14,41.28z"/>
			<path class="st3" d="M426.57,78c0,3.75-3.04,6.78-6.78,6.78c-3.75,0-6.78-3.04-6.78-6.78c0-3.74,3.04-6.78,6.78-6.78
				C423.53,71.22,426.57,74.26,426.57,78z"/>
			
				<ellipse transform="matrix(0.6851 -0.7285 0.7285 0.6851 122.6274 369.8339)" class="st3" cx="489.07" cy="43.08" rx="8.83" ry="8.83"/>
			<path class="st3" d="M488.15-49.36c0,3.89,3.15,7.04,7.04,7.04s7.04-3.15,7.04-7.04c0-3.89-3.15-7.04-7.04-7.04
				S488.15-53.25,488.15-49.36z"/>
		</g>
		<g class="st4">
			<g>
				<g>
					<path class="st2" d="M465.84,1130.09c-0.51,0-1.02-0.14-1.47-0.41c-8.83-5.28-17.99-10.48-26.84-15.5
						c-8.88-5.03-18.05-10.24-26.93-15.55c-0.85-0.51-1.37-1.41-1.39-2.4c-0.2-10.13-0.51-20.53-0.81-30.59
						c-0.3-10.07-0.61-20.48-0.81-30.65c-0.02-0.97,0.45-1.88,1.25-2.42c15.85-10.75,33.84-20.71,54.99-30.46
						c0.86-0.4,1.87-0.34,2.68,0.15l51.41,31.28c0.75,0.46,1.25,1.23,1.35,2.1c2.32,18.99,4.22,39.84,2.43,63.53
						c-0.08,1.04-0.72,1.95-1.66,2.39c-19.15,8.75-37.42,19.13-52.76,28.13C466.85,1129.96,466.34,1130.09,465.84,1130.09z
						 M414.9,1094.54c8.4,5,17.06,9.91,25.46,14.67c8.4,4.76,17.07,9.68,25.5,14.7c14.75-8.63,32.06-18.41,50.28-26.83
						c1.51-21.95-0.2-41.48-2.35-59.35l-48.92-29.77c-19.7,9.15-36.58,18.49-51.51,28.49c0.2,9.64,0.49,19.49,0.78,29.03
						C414.41,1075.02,414.7,1084.88,414.9,1094.54z"/>
				</g>
				<g>
					<path class="st2" d="M465.66,1007.16c-1.48,0-2.73-1.14-2.85-2.64c-1.14-14.55-1.52-29.33-1.11-43.91
						c0.04-1.58,1.33-2.89,2.94-2.78c1.58,0.04,2.82,1.36,2.78,2.94c-0.4,14.39-0.03,28.96,1.1,43.31c0.12,1.57-1.05,2.95-2.63,3.08
						C465.81,1007.15,465.73,1007.16,465.66,1007.16z"/>
				</g>
				<g>
					<path class="st2" d="M409.62,1037.25c-0.5,0-1.01-0.13-1.47-0.41c-11.09-6.66-21.98-13.96-32.36-21.7
						c-1.27-0.94-1.53-2.74-0.58-4c0.94-1.27,2.74-1.53,4-0.58c10.23,7.62,20.96,14.81,31.89,21.38c1.35,0.81,1.79,2.57,0.98,3.92
						C411.54,1036.75,410.59,1037.25,409.62,1037.25z"/>
				</g>
				<g>
					<path class="st2" d="M518.16,1039.26c-0.93,0-1.85-0.46-2.4-1.29c-0.86-1.32-0.49-3.1,0.83-3.96l31.12-20.36
						c1.32-0.86,3.1-0.49,3.96,0.83c0.86,1.32,0.49,3.1-0.83,3.96l-31.12,20.36C519.24,1039.11,518.7,1039.26,518.16,1039.26z"/>
				</g>
				<g>
					<path class="st2" d="M383.98,1116.35c-0.95,0-1.89-0.48-2.43-1.35c-0.84-1.34-0.43-3.11,0.91-3.94l27.52-17.18
						c1.34-0.84,3.1-0.43,3.94,0.91c0.84,1.34,0.43,3.11-0.91,3.94l-27.52,17.18C385.02,1116.21,384.49,1116.35,383.98,1116.35z"/>
				</g>
				<g>
					<path class="st2" d="M466.83,1157.36c-1.55,0-2.83-1.24-2.86-2.81l-0.55-28.25c-0.03-1.58,1.22-2.89,2.8-2.92
						c1.59-0.07,2.88,1.22,2.91,2.8l0.55,28.25c0.03,1.58-1.23,2.88-2.8,2.91C466.87,1157.36,466.85,1157.36,466.83,1157.36z"/>
				</g>
				<g>
					<path class="st2" d="M542.62,1122.71c-0.71,0-1.43-0.26-1.98-0.8c-7.76-7.45-16.16-14.37-24.98-20.55
						c-1.29-0.91-1.61-2.69-0.7-3.98c0.91-1.29,2.69-1.61,3.98-0.7c9.05,6.35,17.68,13.45,25.65,21.1c1.14,1.09,1.18,2.91,0.08,4.04
						C544.12,1122.42,543.37,1122.71,542.62,1122.71z"/>
				</g>
				<g>
					<path class="st2" d="M466.17,1066.49c-0.49,0-0.97-0.12-1.41-0.37c-17.68-10.03-35.94-19.56-54.27-28.33
						c-1.43-0.68-2.03-2.39-1.35-3.82c0.68-1.42,2.39-2.03,3.82-1.35c17.99,8.61,35.91,17.94,53.28,27.76
						c7.87-3.98,16.32-8.12,24.49-12.13c8.65-4.24,17.59-8.62,25.82-12.8c1.41-0.72,3.13-0.16,3.85,1.25
						c0.72,1.41,0.15,3.13-1.26,3.85c-8.27,4.2-17.23,8.59-25.9,12.84c-8.64,4.23-17.57,8.61-25.79,12.79
						C467.05,1066.38,466.61,1066.49,466.17,1066.49z"/>
				</g>
				<g>
					<path class="st2" d="M466.68,1129.11c-1.57,0-2.85-1.27-2.86-2.84l-0.42-62.58c-0.01-1.58,1.26-2.87,2.84-2.88
						c1.58-0.04,2.87,1.26,2.88,2.84l0.42,62.58c0.01,1.58-1.26,2.87-2.84,2.88C466.69,1129.11,466.68,1129.11,466.68,1129.11z"/>
				</g>
			</g>
			
				<ellipse transform="matrix(0.9247 -0.3806 0.3806 0.9247 -329.0294 248.57)" class="st3" cx="464.04" cy="956.29" rx="9.03" ry="9.03"/>
			<circle class="st3" cx="374.26" cy="1011.69" r="6.86"/>
			<circle class="st3" cx="468.7" cy="1062.04" r="10.73"/>
			<path class="st3" d="M389.11,1116.67c0,4-3.24,7.23-7.23,7.23c-4,0-7.23-3.24-7.23-7.23c0-3.99,3.24-7.23,7.23-7.23
				C385.87,1109.44,389.11,1112.68,389.11,1116.67z"/>
			<path class="st3" d="M473.06,1157.55c0,4.17-3.38,7.55-7.55,7.55c-4.17,0-7.55-3.38-7.55-7.55c0-4.17,3.38-7.55,7.55-7.55
				C469.68,1150.01,473.06,1153.38,473.06,1157.55z"/>
			
				<ellipse transform="matrix(0.9702 -0.2423 0.2423 0.9702 -254.8473 164.7831)" class="st3" cx="542.64" cy="1118.68" rx="9.83" ry="9.83"/>
			<path class="st3" d="M541.61,1015.78c0,4.33,3.51,7.83,7.83,7.83c4.33,0,7.83-3.51,7.83-7.83c0-4.33-3.51-7.83-7.83-7.83
				C545.11,1007.95,541.61,1011.46,541.61,1015.78z"/>
		</g>
		<g class="st4">
			<g>
				<g>
					<path class="st2" d="M79.53,309.58c-1.08,0-2.15-0.49-2.84-1.43c-5.09-6.84-10.65-13.93-16.02-20.78
						c-4.82-6.15-9.79-12.49-14.46-18.7c-4.23,1.78-8.39,3.62-12.44,5.4c-4.89,2.15-9.94,4.38-15.11,6.52
						c-1.44,0.6-3.1,0.18-4.09-1.02c-8.46-10.27-19.09-23.46-27.75-36.21c-14.42,8.03-29.54,15.03-44.99,20.81
						c-1.84,0.68-3.87-0.24-4.56-2.07c-0.69-1.83,0.24-3.87,2.07-4.56c16.13-6.04,31.88-13.43,46.84-21.95
						c1.62-0.92,3.68-0.43,4.71,1.13c8.23,12.49,18.79,25.75,27.46,36.32c4.26-1.8,8.46-3.65,12.55-5.44
						c4.89-2.15,9.95-4.38,15.12-6.52c1.5-0.62,3.23-0.14,4.2,1.16c5.09,6.84,10.65,13.93,16.02,20.78
						c5.4,6.88,10.98,14,16.12,20.92c1.17,1.57,0.84,3.79-0.73,4.95C81,309.35,80.26,309.58,79.53,309.58z"/>
				</g>
				<g>
					<path class="st2" d="M-7.55,324.5c-0.71,0-1.42-0.21-2.04-0.65c-1.6-1.13-1.97-3.34-0.84-4.94c9.8-13.82,18.21-28.69,25-44.21
						c0.78-1.79,2.87-2.61,4.66-1.83c1.79,0.78,2.61,2.87,1.82,4.66C14.07,293.5,5.42,308.8-4.66,323.01
						C-5.35,323.98-6.44,324.5-7.55,324.5z"/>
				</g>
				<g>
					<path class="st2" d="M61.12,266.88c-4.04,0-8.07-0.07-12.1-0.22c-1.95-0.07-3.48-1.71-3.41-3.67c0.07-1.96,1.71-3.49,3.67-3.41
						c17.3,0.63,34.78-0.13,51.96-2.25c1.93-0.24,3.71,1.14,3.95,3.08c0.24,1.94-1.14,3.71-3.08,3.95
						C88.56,266.04,74.82,266.88,61.12,266.88z"/>
				</g>
				<g>
					<path class="st2" d="M18.62,279.07c-1.71,0-3.21-1.24-3.49-2.98l-6.89-43.01c-0.16-0.99,0.11-2,0.74-2.78
						c9.67-11.99,22.03-25.04,37.79-39.89c1.08-1.01,2.68-1.25,4-0.59c4.06,2.01,8.5,4.23,12.95,6.44c4.62,2.3,9.25,4.61,13.46,6.7
						c1.75,0.87,2.47,2.99,1.6,4.74c-0.87,1.75-2.99,2.47-4.74,1.6c-4.22-2.09-8.85-4.4-13.47-6.7c-3.65-1.82-7.3-3.64-10.73-5.34
						c-14.14,13.43-25.41,25.32-34.36,36.27l6.64,41.45c0.31,1.93-1,3.75-2.94,4.06C18.99,279.06,18.8,279.07,18.62,279.07z"/>
				</g>
			</g>
			<path class="st3" d="M-50.46,262.81c0,5.27-4.27,9.54-9.54,9.54c-5.27,0-9.54-4.27-9.54-9.54c0-5.27,4.27-9.53,9.54-9.53
				C-54.73,253.28-50.46,257.55-50.46,262.81z"/>
			<path class="st3" d="M0.95,322.49c0,5.1-4.14,9.24-9.24,9.24c-5.1,0-9.24-4.14-9.24-9.24c0-5.1,4.14-9.24,9.24-9.24
				C-3.19,313.25,0.95,317.39,0.95,322.49z"/>
			<path class="st3" d="M27.82,273.32c0,5.8-4.7,10.5-10.5,10.5s-10.5-4.7-10.5-10.5c0-5.8,4.7-10.5,10.5-10.5
				S27.82,267.52,27.82,273.32z"/>
			
				<ellipse transform="matrix(0.7071 -0.7071 0.7071 0.7071 -171.8404 113.1845)" class="st3" cx="50.71" cy="264.02" rx="9.29" ry="9.29"/>
			<path class="st3" d="M73.64,309.38c0,3.97,3.22,7.19,7.19,7.19c3.97,0,7.19-3.22,7.19-7.19c0-3.97-3.22-7.19-7.19-7.19
				C76.86,302.19,73.64,305.41,73.64,309.38z"/>
			<path class="st3" d="M93.24,262.74c0,4.43,3.59,8.02,8.02,8.02c4.43,0,8.02-3.59,8.02-8.02c0-4.43-3.59-8.02-8.02-8.02
				C96.83,254.73,93.24,258.32,93.24,262.74z"/>
			<path class="st3" d="M84.9,206.82c0,3.66-2.96,6.62-6.62,6.62c-3.66,0-6.62-2.97-6.62-6.62c0-3.66,2.97-6.62,6.62-6.62
				C81.93,200.2,84.9,203.17,84.9,206.82z"/>
			<path class="st3" d="M58.31,192.88c0,4.04-3.28,7.32-7.32,7.32c-4.04,0-7.32-3.28-7.32-7.32c0-4.04,3.28-7.32,7.32-7.32
				C55.03,185.56,58.31,188.84,58.31,192.88z"/>
			<path class="st3" d="M19.65,233.76c0,4.01-3.25,7.26-7.26,7.26c-4.01,0-7.26-3.25-7.26-7.26c0-4.01,3.25-7.26,7.26-7.26
				C16.4,226.5,19.65,229.75,19.65,233.76z"/>
			<circle class="st3" cx="-11.09" cy="239.56" r="7.97"/>
		</g>
		<g class="st4">
			<g>
				<g>
					<path class="st2" d="M1425.74-51.26c1.1,0,2.2,0.5,2.91,1.46c5.21,7,10.88,14.24,16.37,21.24
						c4.93,6.29,10.01,12.76,14.78,19.11c4.32-1.82,8.58-3.7,12.71-5.52c5-2.2,10.16-4.47,15.44-6.66c1.47-0.61,3.16-0.19,4.18,1.04
						c8.65,10.49,19.52,23.98,28.36,37.01c14.74-8.21,30.19-15.36,45.98-21.27c1.88-0.7,3.96,0.25,4.66,2.12
						c0.7,1.87-0.25,3.96-2.12,4.66c-16.48,6.17-32.59,13.72-47.87,22.44c-1.66,0.95-3.76,0.44-4.82-1.15
						c-8.41-12.77-19.2-26.32-28.07-37.12c-4.36,1.84-8.65,3.73-12.82,5.56c-5,2.2-10.17,4.48-15.45,6.66
						c-1.53,0.64-3.3,0.15-4.29-1.18c-5.21-7-10.88-14.24-16.37-21.24c-5.52-7.04-11.22-14.31-16.48-21.38
						c-1.19-1.6-0.86-3.87,0.74-5.06C1424.23-51.03,1424.99-51.26,1425.74-51.26z"/>
				</g>
				<g>
					<path class="st2" d="M1514.74-66.51c0.72,0,1.45,0.22,2.09,0.67c1.63,1.16,2.02,3.41,0.86,5.05
						c-10.01,14.12-18.61,29.33-25.55,45.19c-0.8,1.83-2.93,2.67-4.77,1.87c-1.83-0.8-2.67-2.94-1.86-4.77
						c7.14-16.32,15.98-31.95,26.28-46.48C1512.49-65.98,1513.6-66.51,1514.74-66.51z"/>
				</g>
				<g>
					<path class="st2" d="M1444.55-7.61c4.13,0,8.25,0.08,12.36,0.23c2,0.07,3.56,1.75,3.48,3.75c-0.07,2-1.75,3.57-3.75,3.48
						c-17.68-0.64-35.55,0.13-53.11,2.3c-1.98,0.25-3.79-1.16-4.04-3.15c-0.24-1.98,1.16-3.79,3.15-4.03
						C1416.51-6.75,1430.55-7.61,1444.55-7.61z"/>
				</g>
				<g>
					<path class="st2" d="M1487.99-20.08c1.75,0,3.28,1.27,3.57,3.05l7.05,43.96c0.16,1.01-0.11,2.05-0.76,2.84
						c-9.89,12.25-22.52,25.59-38.63,40.77c-1.1,1.04-2.74,1.28-4.09,0.61c-4.15-2.06-8.69-4.32-13.24-6.59
						c-4.72-2.35-9.45-4.71-13.76-6.85c-1.79-0.89-2.52-3.06-1.63-4.85c0.89-1.79,3.06-2.53,4.85-1.63
						c4.31,2.14,9.05,4.5,13.77,6.85c3.73,1.86,7.46,3.72,10.97,5.46c14.45-13.73,25.97-25.88,35.11-37.07l-6.79-42.37
						c-0.32-1.97,1.03-3.83,3-4.15C1487.61-20.06,1487.8-20.08,1487.99-20.08z"/>
				</g>
			</g>
			<path class="st3" d="M1558.6-3.46c0-5.38,4.36-9.75,9.75-9.75c5.38,0,9.75,4.36,9.75,9.75c0,5.38-4.36,9.75-9.75,9.75
				C1562.96,6.29,1558.6,1.92,1558.6-3.46z"/>
			
				<ellipse transform="matrix(0.7071 -0.7071 0.7071 0.7071 489.453 1052.738)" class="st3" cx="1515.49" cy="-64.45" rx="9.44" ry="9.44"/>
			
				<ellipse transform="matrix(0.9925 -0.1225 0.1225 0.9925 12.9555 182.3345)" class="st3" cx="1489.32" cy="-14.19" rx="10.73" ry="10.73"/>
			<circle class="st3" cx="1455.2" cy="-4.69" r="9.5"/>
			
				<ellipse transform="matrix(0.7071 -0.7071 0.7071 0.7071 453.2956 992.249)" class="st3" cx="1424.4" cy="-51.05" rx="7.35" ry="7.35"/>
			<path class="st3" d="M1411.72-3.39c0-4.53-3.67-8.19-8.19-8.19c-4.53,0-8.19,3.67-8.19,8.19c0,4.53,3.67,8.19,8.19,8.19
				C1408.05,4.81,1411.72,1.14,1411.72-3.39z"/>
			<path class="st3" d="M1420.25,53.77c0-3.74,3.03-6.77,6.77-6.77c3.74,0,6.77,3.03,6.77,6.77c0,3.74-3.03,6.77-6.77,6.77
				C1423.28,60.54,1420.25,57.51,1420.25,53.77z"/>
			
				<ellipse transform="matrix(0.232 -0.9727 0.9727 0.232 1051.1406 1467.4275)" class="st3" cx="1454.9" cy="68.02" rx="7.48" ry="7.48"/>
			<path class="st3" d="M1486.94,26.24c0-4.1,3.32-7.42,7.42-7.42c4.1,0,7.42,3.32,7.42,7.42c0,4.1-3.32,7.42-7.42,7.42
				C1490.26,33.65,1486.94,30.33,1486.94,26.24z"/>
			<circle class="st3" cx="1518.35" cy="20.31" r="8.14"/>
		</g>
		<g class="st4">
			<polygon class="st1" points="781.23,957.46 675.11,1018.73 675.11,1141.27 781.23,1202.55 887.36,1141.27 887.36,1018.73 			"/>
			<polygon class="st1" points="182.59,685.31 182.59,635.06 139.07,609.93 95.55,635.06 95.55,685.31 139.07,710.43 			"/>
			<polygon class="st1" points="258.53,978.76 258.53,1006.75 282.76,1020.74 307,1006.75 307,978.76 282.76,964.77 			"/>
			<polygon class="st1" points="69.59,672.65 69.59,550.11 -36.53,488.84 -142.66,550.11 -142.66,672.65 -36.53,733.93 			"/>
			<polygon class="st1" points="160.14,789.77 160.14,813.49 37.81,742.86 -126.88,837.94 -126.88,1028.1 37.81,1123.18 
				202.49,1028.1 202.49,908.04 241.39,930.5 322.64,883.59 322.64,789.77 241.39,742.86 			"/>
		</g>
	</g>
</g>
<g id="TEXTS">
</g>
</svg>
