<svg xmlns="http://www.w3.org/2000/svg" viewBox="0 0 112.83 71.9"><defs><style>.cls-1,.cls-2{fill:#FFFF;}.cls-2{font-size:36.17px;font-family:Philosopher-Bold, Philosopher;font-weight:700;}</style></defs><title>Logo2</title><g id="Layer_2" data-name="Layer 2"><g id="TEXTS"><path class="cls-1" d="M42.49,64.82H11.56a11.55,11.55,0,0,1-9-18.75l14-17.61V17.86H11.38V1.42H42.67V17.86H37.48v10.6l14,17.61a11.55,11.55,0,0,1-9,18.75ZM17.86,11.39H23V30.72L7.6,50.11a5.07,5.07,0,0,0,4,8.23H42.49a5.07,5.07,0,0,0,4-8.23L31,30.72V11.39h5.19V7.89H17.86Z"/><text class="cls-2" transform="translate(63.35 30.02)">NA</text><text class="cls-2" transform="translate(63.21 59.34) rotate(0.75)">CL</text></g></g></svg>