<svg xmlns="http://www.w3.org/2000/svg" viewBox="0 0 524.17 546.73"><defs><style>.cls-1{fill:#739cea;}.cls-18,.cls-2{fill:#fff;}.cls-3{fill:#b8d5fe;}.cls-4{fill:#e57e9d;}.cls-5{fill:#ebae90;}.cls-6{fill:#e0927f;}.cls-7{fill:#8fa9e0;}.cls-8{fill:#284aa3;}.cls-9{fill:#182b67;}.cls-10{fill:#90b6fe;}.cls-11{fill:#5a7cdb;}.cls-12{fill:#21255c;}.cls-12,.cls-17{opacity:0.3;}.cls-13{fill:#597ddb;}.cls-14{fill:#ababe1;}.cls-15{fill:#c13e70;}.cls-16{fill:#3b63bc;}.cls-18{opacity:0.5;}</style></defs><title>Scientist</title><g id="Layer_2" data-name="Layer 2"><g id="OBJECTS"><path class="cls-1" d="M58.37,477.44H460.72a335.94,335.94,0,0,0,49.41-82.23c12.81-30.14,18.39-64.26,10.17-96s-31.73-60.32-63.15-69.59c-18.4-5.44-38.08-4.17-57-7.46s-38.84-13.2-44.81-31.43c-8.49-26,15.14-52,14.7-79.3-.29-17.91-11.36-34.45-26-44.81S311.65,51.4,293.94,48.71C213,36.41,126.69,70.06,75.44,133.87S10,289.24,39.43,365.59c6.4,16.59,14.71,32.53,19.12,49.76S67.76,462.34,58.37,477.44Z"/><path class="cls-1" d="M399.72,127.81c-6.21,13.38-6.56,29.85,1,42.5,6.29,10.52,17.44,17.58,29.33,20.59,20.24,5.13,43.36-1.64,56.64-17.76s15.26-41,3.61-58.33C466.79,79.8,415.42,93.93,399.72,127.81Z"/><path class="cls-2" d="M237.6,201.22l38.76,10.31a62,62,0,0,1,41.29,36l43.84,105-53.74,25.22,5.35,99.67h-196l3.31-26.93a455.38,455.38,0,0,0,3.41-53.87L124.52,207l60.8-8.89Z"/><path class="cls-3" d="M237.6,201.22l21.45,22.17a3.72,3.72,0,0,1-.25,5.41l-9.3,8L265.63,262a3.72,3.72,0,0,1-.43,4.56l-38,40.13Z"/><path class="cls-3" d="M185.32,198.09,164,223.66a5,5,0,0,0,1.21,7.41l16.2,9.92-15.17,21.46a5,5,0,0,0,1.43,7.07l59.53,37.18Z"/><path class="cls-2" d="M227.18,306.7,185.32,198.09,169,222a5,5,0,0,0,1.22,6.83l15.08,10.8-14,21.68a5,5,0,0,0,1.3,6.74Z"/><path class="cls-2" d="M237.6,201.22,227.18,306.7l33-42.1a5,5,0,0,0,.41-5.52l-13.42-23.57,7.6-7.48a5,5,0,0,0,.26-6.79Z"/><polygon class="cls-3" points="227.18 306.7 225.27 387.49 227.18 472.48 231.45 387.29 227.18 306.7"/><path class="cls-3" d="M132.9,244.13,139.1,314l37.22-23.26-18,6.56a8.48,8.48,0,0,1-11.3-6.77h0a158.68,158.68,0,0,0-12.86-43.62Z"/><path class="cls-3" d="M124.08,323.37l52.24-32.65,39.91,10.64A32.56,32.56,0,0,1,205.16,314l-8.68,20.56c.62,16-3.72,34.65-3.72,34.65l-47.25,34.5a37.07,37.07,0,0,1-22,7.14q.24-7.09.28-14.19Z"/><path class="cls-3" d="M141.27,425.54a412.77,412.77,0,0,0,51.93-.35c-.41,5.49-.86,11.2-1.28,16.75a3.69,3.69,0,0,1-2.69,3.27c-8.92,2.53-18,5.54-26.95,8a3.71,3.71,0,0,1-2.09,0,102.09,102.09,0,0,1-19.35-8.43,3.73,3.73,0,0,1-1.74-4.25C140.43,435.71,141.54,430.12,141.27,425.54Z"/><path class="cls-2" d="M143.54,422.9a348.18,348.18,0,0,0,47.8-.35c-.44,6.35-.93,13-1.36,19.33-9.26,2.75-18.8,6.24-28.06,9-7.13-2.25-14.54-5.19-20.8-9.29A64.56,64.56,0,0,0,143.54,422.9Z"/><path class="cls-3" d="M300.51,425.54a274.15,274.15,0,0,1-42.31-.35c.33,5.49.7,11.2,1,16.75a3.59,3.59,0,0,0,2.19,3.27c7.27,2.53,14.71,5.54,22,8a2.48,2.48,0,0,0,1.7,0,76.2,76.2,0,0,0,15.76-8.43,4.1,4.1,0,0,0,1.42-4.25A59.73,59.73,0,0,1,300.51,425.54Z"/><path class="cls-2" d="M298.74,422.9a212,212,0,0,1-37.28-.35c.34,6.35.72,13,1.05,19.33,7.23,2.75,14.67,6.24,21.89,9a60.29,60.29,0,0,0,16.22-9.29A82.21,82.21,0,0,1,298.74,422.9Z"/><path class="cls-4" d="M302.66,314.75a112.62,112.62,0,0,0-31.91.81,21.8,21.8,0,0,0-13.47,7.88,54.29,54.29,0,0,0-6.93,11.37,15,15,0,0,0,2.12,15.85c2.88,3.42,5.93,7,8.19,9.79a3.92,3.92,0,0,0,3.1,1.46h.13a4.12,4.12,0,0,0,3.37-6.42,67.92,67.92,0,0,1-5.22-9.63A76.67,76.67,0,0,0,274.5,359a16,16,0,0,0,11.65,3.58c6.49-.58,13.06-1.13,19.58-1.71a19.28,19.28,0,0,0,16.62-13.13c.26-.78.5-1.57.72-2.36A24.1,24.1,0,0,0,302.66,314.75Z"/><polygon class="cls-5" points="236.39 164.18 236.39 197.05 214.68 207.81 189.81 190.23 197.78 146.37 236.39 164.18"/><path class="cls-6" d="M213.71,187.94c-7.73-6.57-12.41-16.16-14.8-26A88.24,88.24,0,0,1,197,150.73l.79-4.36,38.61,17.81v31.27C228.35,196.25,219.94,193.23,213.71,187.94Z"/><polygon class="cls-3" points="214.68 207.81 199.62 235.19 185.32 198.09 189.81 190.23 214.68 207.81"/><polygon class="cls-3" points="236.39 197.05 214.68 207.81 234.68 230.76 237.6 201.22 236.39 197.05"/><polygon class="cls-7" points="214.68 207.81 234.68 230.76 227.18 306.7 199.62 235.19 214.68 207.81"/><polygon class="cls-8" points="214.68 207.81 225.27 219.96 221.71 230.76 213.1 231.58 207.18 221.44 214.68 207.81"/><polygon class="cls-8" points="221.71 230.76 231.45 263.45 227.18 306.7 209.56 260.97 213.1 231.58 221.71 230.76"/><path class="cls-9" d="M225.27,220l-3.56,10.8-8.61.82-1.89-3.23,3.07-.3a9,9,0,0,0,7.8-6.65l1-3.92Z"/><path class="cls-9" d="M284.72,138.67a62.64,62.64,0,0,0,20.57-55.21A62.64,62.64,0,0,0,270,36.29a51.1,51.1,0,0,0-27.63-4.61c-9.38,1.22-18.45,5.72-24.48,13a89.72,89.72,0,0,1-2.54-24.64c-3.11,2.81-5.08,7.7-5.33,11.88a16.29,16.29,0,0,0,4,11.6,22.41,22.41,0,0,0-19.76-6.74c4.63,2.54,9.3,5.48,13.92,8-6.41-2.12-14.21-1-20.36,1.81a27.46,27.46,0,0,0-13.82,14.17c-2.35,5.54-2.79,11.7-2.68,17.72A106.37,106.37,0,0,0,180,118.9c3.05,7,10.81,12,17.32,16,5.36-8.2,14.22-15.29,22.12-21.08,14.38,3.51,28.73,7.39,42,14A100.92,100.92,0,0,1,275.05,136C277.47,137.74,282.47,140.63,284.72,138.67Z"/><path class="cls-5" d="M207,115.06c9.86-4.37,20.45-23.21,20.09-37.21,16.56,19,38.91,31.52,63.24,37.91C288,129,283,142.48,278.54,152.43c-6.83,15.14-18.09,30.16-34.39,33.37-15.63,3.09-31.88-6.2-40.51-19.59-6.29-9.77-9.09-21.27-9.83-33A46.58,46.58,0,0,0,207,115.06Z"/><path class="cls-9" d="M232.82,108.08a17.92,17.92,0,0,0-14.22,7.18l28.53-.17A17.91,17.91,0,0,0,232.82,108.08Z"/><path class="cls-9" d="M238.85,129a4.83,4.83,0,1,1-5.14-4.52A4.83,4.83,0,0,1,238.85,129Z"/><path class="cls-9" d="M278.62,115.73c4.42.84,7.73,4.3,9.29,9l-21.65-4.11C269.68,116.87,274.2,114.89,278.62,115.73Z"/><path class="cls-9" d="M269.61,135.31c-.69,2.58.36,5.1,2.35,5.64s4.16-1.12,4.86-3.7-.36-5.11-2.35-5.64S270.31,132.73,269.61,135.31Z"/><polygon class="cls-2" points="211.83 135.55 193.81 121.98 193.81 127.29 209.04 139.91 211.83 135.55"/><polygon class="cls-2" points="199.89 150.68 194.2 139.04 189.81 138.28 196.69 154.46 199.89 150.68"/><path class="cls-2" d="M267.56,151.26c-4.43-2.39-8.54-5.6-13.45-6.71-5.76-1.31-11.71.47-17.61.84A37.67,37.67,0,0,1,209,135.55a35.24,35.24,0,0,1,4.49-3.91A32,32,0,0,0,239,140.79c5-.49,10.05-2.2,15.05-1.39,4.79.78,8.87,3.77,13.13,6.11s9.4,4.1,13.88,2.24c-.82,2-1.63,4.1-2.51,6.19C274.86,154.4,270.9,153.06,267.56,151.26Z"/><path class="cls-3" d="M209,135.55a37.67,37.67,0,0,0,27.46,9.84c5.9-.37,11.85-2.15,17.61-.84,4.91,1.11,9,4.32,13.45,6.71,3.34,1.8,7.3,3.14,11,2.68a77.38,77.38,0,0,1-15,23.88c-10.55,11.58-48.8,22.75-66.79-23.36C196.69,154.46,201.29,143.47,209,135.55Z"/><path class="cls-10" d="M213.12,147.84a92.5,92.5,0,0,0,13.68,3.21,73.25,73.25,0,0,0,15.6.69,64,64,0,0,1,8.38-.24,21.25,21.25,0,0,1,4.32.75,22,22,0,0,1,3.89,1.62c2.37,1.25,4.39,2.61,6.48,3.54a12.3,12.3,0,0,0,6.36,1.24,11.11,11.11,0,0,1-6.9.44,53.63,53.63,0,0,1-7.17-2.45,19.36,19.36,0,0,0-7.14-1.36c-2.51,0-5.17.31-8,.49a48.65,48.65,0,0,1-16.5-1.77A42.85,42.85,0,0,1,213.12,147.84Z"/><path class="cls-10" d="M225.65,158.71c5.34.8,12.15,2,19,2.86s13.75,1.44,19.13,2a63.22,63.22,0,0,1-38.14-4.88Z"/><path class="cls-10" d="M231.8,166.3c3.45.62,7.84,1.47,12.29,2s8.9.81,12.4,1.06a37.13,37.13,0,0,1-24.69-3.08Z"/><path class="cls-5" d="M190.21,117.33c-2.44-1.84-5.54-3.16-8.51-2.47-3.69.86-6.13,4.75-6.22,8.54s1.74,7.4,4.12,10.35a17.47,17.47,0,0,0,6.46,5.25,9.84,9.84,0,0,0,8.14.05C203.62,134.36,195.82,121.55,190.21,117.33Z"/><path class="cls-6" d="M178.93,124.59A7.22,7.22,0,0,1,191.5,131a3.44,3.44,0,0,1-2.09,2.56c-1.24.36-2.53-.44-3.43-1.37a5.31,5.31,0,0,1-1.67-3.41,2.77,2.77,0,0,1,2.11-2.86A8.57,8.57,0,0,0,178.93,124.59Z"/><path class="cls-8" d="M296.63,78.86a63.24,63.24,0,0,0-39.35-37.94c-11.56-3.74-29.23-2.84-39.43,3.77,6-7.29,15.1-11.79,24.48-13A51.1,51.1,0,0,1,270,36.29a62.64,62.64,0,0,1,35.33,47.17,62.81,62.81,0,0,1-12.73,46.93A63.36,63.36,0,0,0,296.63,78.86Z"/><path class="cls-8" d="M331.53,406.41C378.68,376.64,347.9,284,291,273.24l-10.59-29.11c89.23,12.47,154.37,175.62,51.08,211.29Z"/><rect class="cls-9" x="331.53" y="406.41" width="18.48" height="49.01" transform="translate(681.55 861.83) rotate(180)"/><path class="cls-11" d="M350,406.41c47.14-29.77,16.37-122.38-40.49-133.17l-10.6-29.11C388.16,256.6,453.29,419.75,350,455.42Z"/><path class="cls-12" d="M280.45,244.13a85.63,85.63,0,0,1,20.51,5.6l-2-5.6a85,85,0,0,1,16.4,4l10.94,30.9-12.34,3.57A63.52,63.52,0,0,0,291,273.24Z"/><path class="cls-8" d="M243.09,198.2c-1.2-3.3,3.23-7.94,9.89-10.36s13-1.72,14.23,1.58l.93,2.54-1.15.42c-1.2,2.73-4.85,5.64-9.67,7.4s-9.48,1.86-12.15.55l-1.15.41Z"/><path class="cls-9" d="M244,200.74c1.2,3.3,7.57,4,14.23,1.58s11.09-7.06,9.89-10.36-7.57-4-14.23-1.57S242.82,197.45,244,200.74Z"/><path class="cls-11" d="M254.79,192.83c5-1.84,9.86-1.3,10.77,1.19l14.18,39-18.24,6.64-14.18-39C246.41,198.17,249.76,194.66,254.79,192.83Z"/><path class="cls-8" d="M240.84,245.49c-2.93-8,7.89-19.37,24.15-25.29s31.83-4.19,34.76,3.86l2.26,6.21-2.81,1c-2.92,6.65-11.83,13.76-23.6,18s-23.17,4.56-29.68,1.34l-2.81,1Z"/><path class="cls-9" d="M243.11,251.71c2.93,8,18.49,9.78,34.75,3.86s27.08-17.25,24.15-25.3-18.49-9.77-34.76-3.85S240.18,243.66,243.11,251.71Z"/><path class="cls-11" d="M269.42,232.38c12.3-4.47,24.07-3.17,26.29,2.92l34.62,95.13-44.54,16.21-34.63-95.13C249,245.42,257.12,236.86,269.42,232.38Z"/><path class="cls-2" d="M298.54,332.32h0a6.83,6.83,0,0,0,4.08-8.74L275.46,249a6.82,6.82,0,0,0-8.74-4.07h0a6.83,6.83,0,0,0-4.08,8.74l27.17,74.62A6.82,6.82,0,0,0,298.54,332.32Z"/><path class="cls-8" d="M268.73,348.32c-3.77-10.35,10.14-24.91,31-32.53s40.93-5.39,44.7,5l2.91,8-3.62,1.31c-3.75,8.56-15.21,17.71-30.34,23.22s-29.8,5.86-38.17,1.72l-3.62,1.32Z"/><path class="cls-9" d="M271.64,356.32c3.77,10.35,23.78,12.57,44.7,4.95s34.82-22.17,31.05-32.52-23.78-12.57-44.7-5S267.87,346,271.64,356.32Z"/><path class="cls-11" d="M290.47,353.65c-2-5.58,5.46-13.42,16.72-17.51s22-2.91,24.06,2.66l9.49,26.07-1.95.71c-2,4.61-8.19,9.53-16.34,12.5s-16,3.15-20.55.92l-1.94.71Z"/><path class="cls-9" d="M300,379.71c2,5.57,12.8,6.77,24.06,2.67s18.74-11.94,16.72-17.51-12.81-6.77-24.07-2.67S297.93,374.14,300,379.71Z"/><polygon class="cls-9" points="231.45 403.55 336.3 403.55 372.96 369.19 268.11 369.19 231.45 403.55"/><polygon class="cls-8" points="372.96 369.19 371.31 362.31 266.46 362.31 268.11 369.19 372.96 369.19"/><polygon class="cls-13" points="229.8 396.68 231.45 403.55 268.11 369.19 266.46 362.31 229.8 396.68"/><rect class="cls-8" x="256.65" y="464.41" width="176.17" height="13.03" transform="translate(689.47 941.85) rotate(180)"/><rect class="cls-9" x="176.32" y="464.41" width="80.33" height="13.03" transform="translate(432.97 941.85) rotate(180)"/><path class="cls-9" d="M363,414h0a4.21,4.21,0,0,1,.71,0H373l1.09,12.61,26.21,37.81H359.63V417.69A3.68,3.68,0,0,1,363,414Z"/><path class="cls-8" d="M369.55,464.41V417.69a3.72,3.72,0,0,1,6.78-2.12l33.85,48.84Z"/><path class="cls-9" d="M374.16,437.32c0,3.63,2.18,6.57,4.87,6.57s4.87-2.94,4.87-6.57-2.18-6.56-4.87-6.56S374.16,433.7,374.16,437.32Z"/><path class="cls-2" d="M132.9,244.13,139.1,314,163,299.1l20.78,61.1L141.1,392a36.19,36.19,0,0,1-36.71,3.89h0A36.17,36.17,0,0,1,83.27,363v-98.1a60.5,60.5,0,0,1,34-54.37l7.3-3.57Z"/><path class="cls-3" d="M139.1,314,104,335.85c7.78-24,18.84-26.26,34.71-25.92Z"/><path class="cls-14" d="M183.76,360.2s-27-29.47-20.78-61.1C180.66,305.61,186.55,335.69,183.76,360.2Z"/><path class="cls-14" d="M157.65,356.5l.78.9-.25.21a3.75,3.75,0,0,1-4.94,4.25l-.27.23-1-1.17a3.62,3.62,0,0,1,5.69-4.42Z"/><path class="cls-3" d="M153.58,357a3.28,3.28,0,1,0,4.85.37A3.46,3.46,0,0,0,153.58,357Z"/><path class="cls-14" d="M147.45,363.5l.77.9-.24.21a3.75,3.75,0,0,1-4.94,4.25l-.27.23-1-1.17a3.62,3.62,0,0,1,5.69-4.42Z"/><path class="cls-3" d="M143.38,364a3.28,3.28,0,1,0,4.84.37A3.45,3.45,0,0,0,143.38,364Z"/><path class="cls-5" d="M163,299.1c-3.42,17.44,3.25,34.22,9.93,45.77L190.59,322l-14.27-31.26Z"/><path class="cls-6" d="M176.68,321.66A42.48,42.48,0,0,1,173,292.81l3.33-2.09L190.59,322l-17.68,22.89c-1.27-2.18-2.53-4.56-3.73-7.09,2.19-2.59,4.38-5.21,6.58-7.76A7.48,7.48,0,0,0,176.68,321.66Z"/><path class="cls-4" d="M174.77,288.55l21.92-16.13,35.35-25A18,18,0,0,1,249,245.36a92.19,92.19,0,0,1,25.23,15.26c2,1.69,4,3.6,4.15,6.39a3.94,3.94,0,0,1-1.2,3.17c-1.93,1.76-4.44.72-6.5-.31L243,256.08c8.31,5.34,17,11.37,25.36,16.7a15.27,15.27,0,0,1,4.87,4.22c1.16,1.83,1.41,4.43,0,6.05a5.13,5.13,0,0,1-4.68,1.37,15.37,15.37,0,0,1-4.68-1.92l-25.62-14.06c6.9,5.25,13.77,10.62,20.67,15.86a13.92,13.92,0,0,1,3.89,3.87,4.23,4.23,0,0,1-4.27,6.72,14.15,14.15,0,0,1-4.45-1.56l-20.31-9.78c4.84,4.34,10.08,8,14.92,12.34,1.59,1.43,3.34,3.42,2.47,5.44a3.25,3.25,0,0,1-2.26,1.79,7.73,7.73,0,0,1-4.89-.86,50.11,50.11,0,0,1-12.64-7.91c-15,9.71-27.71,8.9-27.71,8.9L190,328.56C167.64,319.57,174.77,288.55,174.77,288.55Z"/><path class="cls-15" d="M190.11,320.36a23.52,23.52,0,0,1-6.22-5.43,27.78,27.78,0,0,1-6.24-17.64,23.52,23.52,0,0,1,1.42-8.13,42.4,42.4,0,0,0,11,31.2Z"/><path class="cls-15" d="M190.76,316.19a23.1,23.1,0,0,1-7.24-22.13,44.29,44.29,0,0,0,7.24,22.13Z"/><path class="cls-15" d="M201.72,300.75a16.9,16.9,0,0,1-4.65-5.34,18.81,18.81,0,0,1-1.17-16,17,17,0,0,1,3.84-6,25,25,0,0,0,2,27.28Z"/><rect class="cls-16" x="172.47" y="477.55" width="309.46" height="26.56" transform="translate(654.41 981.65) rotate(180)"/><rect class="cls-8" x="31.37" y="477.55" width="141.11" height="26.56" transform="translate(203.84 981.65) rotate(180)"/><rect class="cls-16" x="180.4" y="504.11" width="280.32" height="42.62" transform="translate(641.12 1050.84) rotate(180)"/><rect class="cls-8" x="52.58" y="504.11" width="127.82" height="42.62" transform="translate(232.99 1050.84) rotate(180)"/><rect class="cls-8" x="180.4" y="504.11" width="280.32" height="18.9" transform="translate(641.12 1027.11) rotate(180)"/><rect class="cls-9" x="52.58" y="504.11" width="127.82" height="18.9" transform="translate(232.99 1027.11) rotate(180)"/><path class="cls-10" d="M482.52,236.09a13.8,13.8,0,0,0-8.71,10,17.28,17.28,0,0,0,1.8,11.13,19.88,19.88,0,0,0,8.09,8.57,15.32,15.32,0,0,0,11.57,1.33c5.92-1.81,10.06-7.86,10.23-14.05C505.82,241.5,493.73,232.1,482.52,236.09Z"/><path class="cls-1" d="M499.05,260.52a15.28,15.28,0,0,1-11.57-1.33,19.82,19.82,0,0,1-8.09-8.57,17.24,17.24,0,0,1-1.8-11.12c0-.12.06-.24.08-.35a13.68,13.68,0,0,0-3.86,6.93,17.28,17.28,0,0,0,1.8,11.13,19.88,19.88,0,0,0,8.09,8.57,15.33,15.33,0,0,0,11.57,1.33,15,15,0,0,0,9.62-10.25A13.71,13.71,0,0,1,499.05,260.52Z"/><g class="cls-17"><path class="cls-2" d="M505.5,253.06c.32-11.56-11.77-21-23-17a13.8,13.8,0,0,0-8.71,10,17.28,17.28,0,0,0,1.8,11.13,19.88,19.88,0,0,0,8.09,8.57,15.33,15.33,0,0,0,11.57,1.33C501.19,265.3,505.33,259.25,505.5,253.06Zm-10.82,12.1a12.6,12.6,0,0,1-6.06.25h0a13.83,13.83,0,0,1-4-1.43,17.87,17.87,0,0,1-7.23-7.69,15.25,15.25,0,0,1-1.63-9.79,11.72,11.72,0,0,1,7.41-8.49,14,14,0,0,1,7.48-.54c7.37,1.46,13,8.28,12.78,15.54C503.31,258.54,499.62,263.65,494.68,265.16Z"/></g><path class="cls-10" d="M476.05,371.79A16.58,16.58,0,0,0,471,386.9a20.65,20.65,0,0,0,7.12,11.52A23.71,23.71,0,0,0,491,404.21a18.38,18.38,0,0,0,13.47-3.84c5.73-4.73,7.55-13.36,4.9-20.3C504.4,367.08,486.65,362.21,476.05,371.79Z"/><path class="cls-1" d="M505.63,391.32a18.39,18.39,0,0,1-13.46,3.84,23.82,23.82,0,0,1-12.91-5.79,20.67,20.67,0,0,1-7.12-11.53c0-.14-.05-.28-.07-.43a16.36,16.36,0,0,0-1.1,9.49,20.65,20.65,0,0,0,7.12,11.52A23.71,23.71,0,0,0,491,404.21a18.38,18.38,0,0,0,13.47-3.84c4.54-3.75,6.61-9.94,6-15.81A16.37,16.37,0,0,1,505.63,391.32Z"/><g class="cls-17"><path class="cls-2" d="M509.37,380.07c-5-13-22.71-17.86-33.32-8.28A16.58,16.58,0,0,0,471,386.9a20.65,20.65,0,0,0,7.12,11.52A23.71,23.71,0,0,0,491,404.21a18.38,18.38,0,0,0,13.47-3.84C510.2,395.64,512,387,509.37,380.07Zm-6.46,18.41a15,15,0,0,1-6.61,3.06h0a17.1,17.1,0,0,1-5.05.24,21.48,21.48,0,0,1-11.57-5.21,18.35,18.35,0,0,1-6.31-10.13,14.09,14.09,0,0,1,4.32-12.83,16.73,16.73,0,0,1,8.06-4c8.85-1.77,18.22,3.23,21.33,11.37C509.45,387.15,507.7,394.53,502.91,398.48Z"/></g><path class="cls-10" d="M340.28,3.14a9.52,9.52,0,0,0-2.63,8.75,12,12,0,0,0,4.3,6.47,13.66,13.66,0,0,0,7.51,3.07A10.52,10.52,0,0,0,357.1,19a10.53,10.53,0,0,0,2.43-11.72C356.44-.1,346.17-2.55,340.28,3.14Z"/><path class="cls-1" d="M357.6,13.76A10.52,10.52,0,0,1,350,16.22a13.66,13.66,0,0,1-7.51-3.07,11.91,11.91,0,0,1-4.3-6.47,2,2,0,0,1,0-.24,9.4,9.4,0,0,0-.46,5.45,12,12,0,0,0,4.3,6.47,13.66,13.66,0,0,0,7.51,3.07A10.52,10.52,0,0,0,357.1,19a10.29,10.29,0,0,0,3.12-9.17A9.37,9.37,0,0,1,357.6,13.76Z"/><g class="cls-17"><path class="cls-2" d="M359.53,7.25c-3.09-7.35-13.36-9.8-19.25-4.11a9.52,9.52,0,0,0-2.63,8.75,12,12,0,0,0,4.3,6.47,13.66,13.66,0,0,0,7.51,3.07A10.52,10.52,0,0,0,357.1,19,10.53,10.53,0,0,0,359.53,7.25Zm-3.35,10.67a8.79,8.79,0,0,1-3.73,1.88h0a9.69,9.69,0,0,1-2.89.23,12.25,12.25,0,0,1-6.73-2.77A10.53,10.53,0,0,1,339,11.58a8.08,8.08,0,0,1,2.23-7.43,9.63,9.63,0,0,1,4.55-2.47,11,11,0,0,1,12.43,6.11A9.09,9.09,0,0,1,356.18,17.92Z"/></g><path class="cls-10" d="M51.16,99.71a18.6,18.6,0,0,0-7.27,16.34,23.22,23.22,0,0,0,6.74,13.62,26.69,26.69,0,0,0,13.82,7.84,20.59,20.59,0,0,0,15.44-2.88c6.9-4.68,9.85-14.12,7.61-22.15C83.33,97.44,64,90.13,51.16,99.71Z"/><path class="cls-1" d="M82.15,124.64a20.59,20.59,0,0,1-15.44,2.88,26.74,26.74,0,0,1-13.82-7.83,23.28,23.28,0,0,1-6.74-13.63l0-.48a18.46,18.46,0,0,0-2.23,10.47,23.22,23.22,0,0,0,6.74,13.62,26.69,26.69,0,0,0,13.82,7.84,20.59,20.59,0,0,0,15.44-2.88c5.47-3.71,8.44-10.41,8.33-17A18.35,18.35,0,0,1,82.15,124.64Z"/><g class="cls-17"><path class="cls-2" d="M87.5,112.48C83.33,97.44,64,90.13,51.16,99.71a18.6,18.6,0,0,0-7.27,16.34,23.22,23.22,0,0,0,6.74,13.62,26.69,26.69,0,0,0,13.82,7.84,20.59,20.59,0,0,0,15.44-2.88C86.79,130,89.74,120.51,87.5,112.48Zm-9.15,19.88a17,17,0,0,1-7.7,2.72h0a19.27,19.27,0,0,1-5.67-.27,24,24,0,0,1-12.37-7,20.48,20.48,0,0,1-6-12,15.78,15.78,0,0,1,6.17-13.87,18.91,18.91,0,0,1,9.43-3.67c10.07-1,20,5.53,22.63,15C86.85,120.4,84.12,128.45,78.35,132.36Z"/></g><path class="cls-10" d="M8.55,291A17.26,17.26,0,0,0,0,305.18a21.49,21.49,0,0,0,4.64,13.3,24.73,24.73,0,0,0,11.8,8.77A19.11,19.11,0,0,0,31,326.37c6.88-3.51,10.66-11.86,9.53-19.5C38.38,292.58,21.47,283.65,8.55,291Z"/><path class="cls-1" d="M34.2,317.45a19.16,19.16,0,0,1-14.53.88,24.71,24.71,0,0,1-11.8-8.78,21.54,21.54,0,0,1-4.65-13.29c0-.15,0-.3,0-.45A17.05,17.05,0,0,0,0,305.18a21.49,21.49,0,0,0,4.64,13.3,24.73,24.73,0,0,0,11.8,8.77A19.11,19.11,0,0,0,31,326.37c5.45-2.78,9-8.6,9.6-14.7A17.21,17.21,0,0,1,34.2,317.45Z"/><g class="cls-17"><path class="cls-2" d="M40.51,306.87c-2.13-14.29-19-23.22-32-15.88A17.26,17.26,0,0,0,0,305.18a21.49,21.49,0,0,0,4.64,13.3,24.73,24.73,0,0,0,11.8,8.77A19.11,19.11,0,0,0,31,326.37C37.86,322.86,41.64,314.51,40.51,306.87ZM29.82,324.1a15.58,15.58,0,0,1-7.39,1.63h0a17.94,17.94,0,0,1-5.18-.89A22.27,22.27,0,0,1,6.69,317a19,19,0,0,1-4.14-11.69,14.64,14.64,0,0,1,7.26-12.05,17.36,17.36,0,0,1,9.09-2.29c9.37.19,17.76,7.36,19.09,16.33C39,314.08,35.57,321.17,29.82,324.1Z"/></g><circle class="cls-18" cx="401.03" cy="64.55" r="17.52"/><circle class="cls-18" cx="413.13" cy="48.18" r="10.05" transform="translate(46.74 245.05) rotate(-34.9)"/><circle class="cls-18" cx="51.52" cy="419.96" r="24.83" transform="translate(-166.15 57.14) rotate(-23.97)"/><circle class="cls-18" cx="26.84" cy="439.55" r="13.75"/></g></g></svg>